Bevan_ik.ufo
<glyph name="exclam" format="1">
  <advance width="802"/>
  <unicode hex="0021"/>
  <outline>
    <contour>
      <point x="610" y="558" type="line"/>
      <point x="189" y="556" type="line"/>
      <point x="107" y="1331" type="line"/>
      <point x="107" y="1630" type="line"/>
      <point x="694" y="1630" type="line"/>
      <point x="694" y="1331" type="line"/>
    </contour>
    <contour>
      <point x="399" y="463" type="qcurve"/>
      <point x="280" y="463"/>
      <point x="122" y="328"/>
      <point x="122" y="213" type="qcurve"/>
      <point x="122" y="100"/>
      <point x="277" y="-32"/>
      <point x="399" y="-32" type="qcurve"/>
      <point x="526" y="-32"/>
      <point x="686" y="100"/>
      <point x="686" y="213" type="qcurve"/>
      <point x="686" y="328"/>
      <point x="521" y="463"/>
    </contour>
  </outline>
</glyph>
<glyph name="ampersand" format="1">
  <advance width="1728"/>
  <unicode hex="0026"/>
  <outline>
    <contour>
      <point x="1656" y="0" type="line"/>
      <point x="1656" y="368" type="line"/>
      <point x="1426" y="368" type="line"/>
      <point x="1283" y="516"/>
      <point x="1278" y="518" type="qcurve"/>
      <point x="1448" y="694" type="line"/>
      <point x="1512" y="760"/>
      <point x="1586" y="813"/>
      <point x="1656" y="837" type="qcurve"/>
      <point x="1656" y="1126" type="line"/>
      <point x="1173" y="1126" type="line"/>
      <point x="1173" y="831" type="line"/>
      <point x="1220" y="831" type="line"/>
      <point x="1247" y="831"/>
      <point x="1247" y="796" type="qcurve"/>
      <point x="1247" y="780"/>
      <point x="1193" y="717"/>
      <point x="1167" y="693" type="qcurve"/>
      <point x="1140" y="669" type="line"/>
      <point x="961" y="844" type="line"/>
      <point x="1014" y="891"/>
      <point x="1068" y="947"/>
      <point x="1114" y="1023"/>
      <point x="1130" y="1108"/>
      <point x="1130" y="1169" type="qcurve"/>
      <point x="1130" y="1249"/>
      <point x="1055" y="1384"/>
      <point x="933" y="1469"/>
      <point x="783" y="1515"/>
      <point x="706" y="1515" type="qcurve"/>
      <point x="608" y="1515"/>
      <point x="434" y="1462"/>
      <point x="302" y="1362"/>
      <point x="225" y="1207"/>
      <point x="225" y="1111" type="qcurve"/>
      <point x="228" y="936"/>
      <point x="344" y="809" type="qcurve"/>
      <point x="188" y="742"/>
      <point x="33" y="534"/>
      <point x="30" y="380" type="qcurve"/>
      <point x="34" y="189"/>
      <point x="289" y="-25"/>
      <point x="483" y="-27" type="qcurve"/>
      <point x="759" y="-21"/>
      <point x="944" y="183" type="qcurve"/>
      <point x="1068" y="49"/>
      <point x="1117" y="0" type="qcurve"/>
    </contour>
    <contour>
      <point x="487" y="487" type="qcurve"/>
      <point x="487" y="504"/>
      <point x="500" y="537"/>
      <point x="517" y="561"/>
      <point x="535" y="580"/>
      <point x="541" y="584" type="qcurve"/>
      <point x="548" y="589" type="line"/>
      <point x="755" y="375" type="line"/>
      <point x="703" y="335"/>
      <point x="641" y="335" type="qcurve"/>
      <point x="575" y="335"/>
      <point x="487" y="421"/>
    </contour>
    <contour>
      <point x="678" y="1175" type="qcurve"/>
      <point x="678" y="1214"/>
      <point x="733" y="1273"/>
      <point x="772" y="1273" type="qcurve"/>
      <point x="823" y="1273"/>
      <point x="876" y="1203"/>
      <point x="876" y="1152" type="qcurve"/>
      <point x="876" y="1111"/>
      <point x="832" y="1058"/>
      <point x="784" y="1025" type="qcurve"/>
      <point x="752" y="1050"/>
      <point x="714" y="1086"/>
      <point x="678" y="1145"/>
    </contour>
  </outline>
</glyph>
<glyph name="quotesingle" format="1">
  <advance width="559"/>
  <unicode hex="0027"/>
  <outline>
    <contour>
      <point x="124" y="945" type="line"/>
      <point x="424" y="945" type="line"/>
      <point x="524" y="1624" type="line"/>
      <point x="44" y="1624" type="line"/>
    </contour>
  </outline>
</glyph>
<glyph name="plus" format="1">
  <advance width="910"/>
  <unicode hex="002B"/>
  <outline>
    <contour>
      <point x="59" y="517" type="line"/>
      <point x="331" y="517" type="line"/>
      <point x="331" y="238" type="line"/>
      <point x="586" y="238" type="line"/>
      <point x="586" y="517" type="line"/>
      <point x="851" y="517" type="line"/>
      <point x="851" y="762" type="line"/>
      <point x="586" y="762" type="line"/>
      <point x="586" y="1051" type="line"/>
      <point x="331" y="1051" type="line"/>
      <point x="331" y="762" type="line"/>
      <point x="59" y="762" type="line"/>
    </contour>
  </outline>
</glyph>
<glyph name="slash" format="1">
  <advance width="954"/>
  <unicode hex="002F"/>
  <outline>
    <contour>
      <point x="405" y="0" type="line"/>
      <point x="907" y="1623" type="line"/>
      <point x="543" y="1623" type="line"/>
      <point x="52" y="0" type="line"/>
    </contour>
  </outline>
</glyph>
<glyph name="zero" format="1">
  <advance width="1370"/>
  <unicode hex="0030"/>
  <outline>
    <contour>
      <point x="68" y="695" type="qcurve"/>
      <point x="68" y="837"/>
      <point x="155" y="1082"/>
      <point x="313" y="1261"/>
      <point x="546" y="1364"/>
      <point x="824" y="1364"/>
      <point x="1057" y="1261"/>
      <point x="1215" y="1082"/>
      <point x="1302" y="837"/>
      <point x="1302" y="695" type="qcurve"/>
      <point x="1302" y="479"/>
      <point x="1169" y="159"/>
      <point x="888" y="-27"/>
      <point x="482" y="-27"/>
      <point x="201" y="159"/>
      <point x="68" y="479"/>
    </contour>
    <contour>
      <point x="685" y="349" type="qcurve"/>
      <point x="729" y="349"/>
      <point x="786" y="411"/>
      <point x="810" y="521"/>
      <point x="817" y="610"/>
      <point x="817" y="669" type="qcurve"/>
      <point x="817" y="678"/>
      <point x="817" y="697" type="qcurve"/>
      <point x="817" y="724"/>
      <point x="818" y="781"/>
      <point x="812" y="840"/>
      <point x="804" y="894"/>
      <point x="784" y="942"/>
      <point x="756" y="978"/>
      <point x="713" y="998"/>
      <point x="685" y="998" type="qcurve"/>
      <point x="653" y="998"/>
      <point x="604" y="971"/>
      <point x="577" y="924"/>
      <point x="559" y="863"/>
      <point x="555" y="796"/>
      <point x="551" y="728"/>
      <point x="553" y="697" type="qcurve"/>
      <point x="553" y="678"/>
      <point x="553" y="669" type="qcurve"/>
      <point x="553" y="623"/>
      <point x="556" y="553"/>
      <point x="572" y="457"/>
      <point x="598" y="394"/>
      <point x="650" y="349"/>
    </contour>
  </outline>
</glyph>
<glyph name="six" format="1">
  <advance width="1355"/>
  <unicode hex="0036"/>
  <outline>
    <contour>
      <point x="588" y="1345" type="line"/>
      <point x="574" y="1331"/>
      <point x="493" y="1253"/>
      <point x="444" y="1205"/>
      <point x="357" y="1115"/>
      <point x="299" y="1050"/>
      <point x="220" y="953"/>
      <point x="168" y="873"/>
      <point x="111" y="772"/>
      <point x="77" y="682"/>
      <point x="55" y="582"/>
      <point x="55" y="534" type="qcurve"/>
      <point x="55" y="370"/>
      <point x="224" y="116"/>
      <point x="508" y="-18"/>
      <point x="682" y="-18" type="qcurve"/>
      <point x="844" y="-18"/>
      <point x="1127" y="126"/>
      <point x="1301" y="386"/>
      <point x="1302" y="544" type="qcurve"/>
      <point x="1304" y="755"/>
      <point x="1045" y="1012"/>
      <point x="829" y="1023" type="qcurve"/>
      <point x="839" y="1050"/>
      <point x="984" y="1207"/>
      <point x="1124" y="1344"/>
      <point x="1124" y="1345" type="qcurve"/>
    </contour>
    <contour>
      <point x="571" y="550" type="qcurve"/>
      <point x="571" y="588"/>
      <point x="573" y="636"/>
      <point x="586" y="704"/>
      <point x="609" y="744"/>
      <point x="655" y="774"/>
      <point x="688" y="775" type="qcurve"/>
      <point x="718" y="775"/>
      <point x="761" y="737"/>
      <point x="780" y="691"/>
      <point x="791" y="613"/>
      <point x="792" y="576"/>
      <point x="792" y="544" type="qcurve"/>
      <point x="792" y="327"/>
      <point x="676" y="327" type="qcurve"/>
      <point x="642" y="327"/>
      <point x="597" y="376"/>
      <point x="578" y="455"/>
      <point x="571" y="517"/>
    </contour>
  </outline>
</glyph>
<glyph name="eight" format="1">
  <advance width="1322"/>
  <unicode hex="0038"/>
  <outline>
    <contour>
      <point x="61" y="375" type="qcurve"/>
      <point x="61" y="630"/>
      <point x="322" y="730" type="qcurve"/>
      <point x="235" y="763"/>
      <point x="138" y="911"/>
      <point x="138" y="1010" type="qcurve"/>
      <point x="138" y="1096"/>
      <point x="210" y="1230"/>
      <point x="319" y="1309"/>
      <point x="465" y="1359"/>
      <point x="595" y="1377"/>
      <point x="727" y="1377"/>
      <point x="857" y="1359"/>
      <point x="1003" y="1309"/>
      <point x="1112" y="1230"/>
      <point x="1184" y="1096"/>
      <point x="1184" y="1010" type="qcurve"/>
      <point x="1184" y="911"/>
      <point x="1087" y="763"/>
      <point x="1000" y="730" type="qcurve"/>
      <point x="1261" y="630"/>
      <point x="1261" y="375" type="qcurve"/>
      <point x="1261" y="282"/>
      <point x="1181" y="138"/>
      <point x="1060" y="54"/>
      <point x="893" y="0"/>
      <point x="742" y="-18"/>
      <point x="580" y="-18"/>
      <point x="429" y="0"/>
      <point x="262" y="54"/>
      <point x="141" y="138"/>
      <point x="61" y="282"/>
    </contour>
    <contour>
      <point x="581" y="406" type="qcurve"/>
      <point x="581" y="240"/>
      <point x="741" y="240"/>
      <point x="741" y="406" type="qcurve"/>
      <point x="741" y="578"/>
      <point x="581" y="578"/>
    </contour>
    <contour>
      <point x="581" y="986" type="qcurve"/>
      <point x="581" y="824"/>
      <point x="741" y="824"/>
      <point x="741" y="986" type="qcurve"/>
      <point x="741" y="1014"/>
      <point x="736" y="1053"/>
      <point x="722" y="1098"/>
      <point x="687" y="1121"/>
      <point x="635" y="1121"/>
      <point x="600" y="1098"/>
      <point x="586" y="1053"/>
      <point x="581" y="1014"/>
    </contour>
  </outline>
</glyph>
<glyph name="nine" format="1">
  <advance width="1357"/>
  <unicode hex="0039"/>
  <outline>
    <contour>
      <point x="235" y="0" type="line"/>
      <point x="772" y="0" type="line"/>
      <point x="794" y="23"/>
      <point x="891" y="121"/>
      <point x="963" y="194"/>
      <point x="1065" y="306"/>
      <point x="1139" y="400"/>
      <point x="1220" y="522"/>
      <point x="1271" y="630"/>
      <point x="1304" y="755"/>
      <point x="1304" y="813" type="qcurve"/>
      <point x="1304" y="971"/>
      <point x="1145" y="1225"/>
      <point x="866" y="1368"/>
      <point x="694" y="1368" type="qcurve"/>
      <point x="412" y="1368"/>
      <point x="53" y="1036"/>
      <point x="53" y="782" type="qcurve"/>
      <point x="53" y="586"/>
      <point x="331" y="321"/>
      <point x="538" y="321" type="qcurve"/>
      <point x="497" y="269"/>
      <point x="345" y="109"/>
      <point x="290" y="54" type="qcurve"/>
    </contour>
    <contour>
      <point x="575" y="782" type="qcurve"/>
      <point x="575" y="1012"/>
      <point x="686" y="1012" type="qcurve"/>
      <point x="716" y="1012"/>
      <point x="758" y="960"/>
      <point x="775" y="879"/>
      <point x="782" y="817"/>
      <point x="782" y="790" type="qcurve"/>
      <point x="782" y="573"/>
      <point x="684" y="573" type="qcurve"/>
      <point x="575" y="573"/>
    </contour>
  </outline>
</glyph>
<glyph name="colon" format="1">
  <advance width="724"/>
  <unicode hex="003A"/>
  <outline>
    <contour>
      <point x="357" y="596" type="qcurve"/>
      <point x="238" y="596"/>
      <point x="80" y="731"/>
      <point x="80" y="846" type="qcurve"/>
      <point x="80" y="959"/>
      <point x="235" y="1091"/>
      <point x="357" y="1091" type="qcurve"/>
      <point x="484" y="1091"/>
      <point x="644" y="959"/>
      <point x="644" y="846" type="qcurve"/>
      <point x="644" y="731"/>
      <point x="479" y="596"/>
    </contour>
    <contour>
      <point x="357" y="-18" type="qcurve"/>
      <point x="238" y="-18"/>
      <point x="80" y="117"/>
      <point x="80" y="232" type="qcurve"/>
      <point x="80" y="345"/>
      <point x="235" y="477"/>
      <point x="357" y="477" type="qcurve"/>
      <point x="484" y="477"/>
      <point x="644" y="345"/>
      <point x="644" y="232" type="qcurve"/>
      <point x="644" y="117"/>
      <point x="479" y="-18"/>
    </contour>
  </outline>
</glyph>
<glyph name="semicolon" format="1">
  <advance width="720"/>
  <unicode hex="003B"/>
  <outline>
    <contour>
      <point x="105" y="-448" type="line"/>
      <point x="379" y="-448"/>
      <point x="639" y="-189"/>
      <point x="639" y="89" type="qcurve"/>
      <point x="639" y="212"/>
      <point x="615" y="366" type="qcurve"/>
      <point x="105" y="366" type="line"/>
      <point x="105" y="0" type="line"/>
      <point x="294" y="0" type="line"/>
      <point x="294" y="-42"/>
      <point x="292" y="-87"/>
      <point x="281" y="-147"/>
      <point x="257" y="-179"/>
      <point x="216" y="-210"/>
      <point x="150" y="-223"/>
      <point x="105" y="-223" type="qcurve"/>
    </contour>
    <contour>
      <point x="372" y="595" type="qcurve"/>
      <point x="253" y="595"/>
      <point x="95" y="730"/>
      <point x="95" y="845" type="qcurve"/>
      <point x="95" y="958"/>
      <point x="250" y="1090"/>
      <point x="372" y="1090" type="qcurve"/>
      <point x="499" y="1090"/>
      <point x="659" y="958"/>
      <point x="659" y="845" type="qcurve"/>
      <point x="659" y="730"/>
      <point x="494" y="595"/>
    </contour>
  </outline>
</glyph>
<glyph name="equal" format="1">
  <advance width="844"/>
  <unicode hex="003D"/>
  <outline>
    <contour>
      <point x="99" y="392" type="line"/>
      <point x="99" y="169" type="line"/>
      <point x="746" y="169" type="line"/>
      <point x="746" y="392" type="line"/>
    </contour>
    <contour>
      <point x="99" y="761" type="line"/>
      <point x="99" y="538" type="line"/>
      <point x="746" y="538" type="line"/>
      <point x="746" y="761" type="line"/>
    </contour>
  </outline>
</glyph>
<glyph name="greater" format="1">
  <advance width="909"/>
  <unicode hex="003E"/>
  <outline>
    <contour>
      <point x="852" y="946" type="line"/>
      <point x="137" y="1542" type="line"/>
      <point x="137" y="1077" type="line"/>
      <point x="470" y="761" type="line"/>
      <point x="137" y="445" type="line"/>
      <point x="137" y="-20" type="line"/>
      <point x="852" y="576" type="line"/>
    </contour>
  </outline>
</glyph>
<glyph name="D" format="1">
  <advance width="1801"/>
  <unicode hex="0044"/>
  <outline>
    <contour>
      <point x="98" y="0" type="line"/>
      <point x="900" y="0" type="line"/>
      <point x="1102" y="0"/>
      <point x="1428" y="134"/>
      <point x="1634" y="361"/>
      <point x="1744" y="653"/>
      <point x="1744" y="816" type="qcurve"/>
      <point x="1744" y="1212"/>
      <point x="1334" y="1623"/>
      <point x="922" y="1623" type="qcurve"/>
      <point x="92" y="1623" type="line"/>
      <point x="92" y="1271" type="line"/>
      <point x="261" y="1271" type="line"/>
      <point x="261" y="359" type="line"/>
      <point x="98" y="359" type="line"/>
    </contour>
    <contour>
      <point x="808" y="359" type="line"/>
      <point x="808" y="1271" type="line"/>
      <point x="855" y="1271" type="line"/>
      <point x="929" y="1271"/>
      <point x="1039" y="1214"/>
      <point x="1101" y="1127"/>
      <point x="1138" y="1001"/>
      <point x="1150" y="886"/>
      <point x="1150" y="817" type="qcurve"/>
      <point x="1150" y="750"/>
      <point x="1135" y="630"/>
      <point x="1093" y="505"/>
      <point x="1027" y="416"/>
      <point x="916" y="359"/>
      <point x="843" y="359" type="qcurve"/>
    </contour>
  </outline>
</glyph>
<glyph name="E" format="1">
  <advance width="1490"/>
  <unicode hex="0045"/>
  <outline>
    <contour>
      <point x="1367" y="969" type="line"/>
      <point x="1367" y="1623" type="line"/>
      <point x="99" y="1623" type="line"/>
      <point x="99" y="1270" type="line"/>
      <point x="257" y="1270" type="line"/>
      <point x="257" y="359" type="line"/>
      <point x="99" y="359" type="line"/>
      <point x="99" y="0" type="line"/>
      <point x="1378" y="0" type="line"/>
      <point x="1378" y="687" type="line"/>
      <point x="1105" y="687" type="line"/>
      <point x="1042" y="420" type="line"/>
      <point x="1029" y="359" type="line"/>
      <point x="810" y="359" type="line"/>
      <point x="810" y="636" type="line"/>
      <point x="1015" y="636" type="line"/>
      <point x="1015" y="988" type="line"/>
      <point x="810" y="988" type="line"/>
      <point x="810" y="1270" type="line"/>
      <point x="1023" y="1270" type="line"/>
      <point x="1099" y="968" type="line"/>
    </contour>
  </outline>
</glyph>
<glyph name="F" format="1">
  <advance width="1407"/>
  <unicode hex="0046"/>
  <outline>
    <contour>
      <point x="1025" y="999" type="line"/>
      <point x="823" y="999" type="line"/>
      <point x="823" y="1270" type="line"/>
      <point x="1027" y="1270" type="line"/>
      <point x="1091" y="959" type="line"/>
      <point x="1375" y="959" type="line"/>
      <point x="1375" y="1623" type="line"/>
      <point x="100" y="1623" type="line"/>
      <point x="100" y="1270" type="line"/>
      <point x="258" y="1270" type="line"/>
      <point x="258" y="359" type="line"/>
      <point x="100" y="359" type="line"/>
      <point x="100" y="0" type="line"/>
      <point x="977" y="0" type="line"/>
      <point x="977" y="359" type="line"/>
      <point x="823" y="359" type="line"/>
      <point x="823" y="643" type="line"/>
      <point x="1025" y="643" type="line"/>
    </contour>
  </outline>
</glyph>
<glyph name="J" format="1">
  <advance width="1314"/>
  <unicode hex="004A"/>
  <outline>
    <contour>
      <point x="30" y="-13" type="line"/>
      <point x="300" y="-13" type="line"/>
      <point x="337" y="79" type="line"/>
      <point x="426" y="-30"/>
      <point x="625" y="-30" type="qcurve"/>
      <point x="859" y="-30"/>
      <point x="1121" y="245"/>
      <point x="1121" y="475" type="qcurve"/>
      <point x="1121" y="1270" type="line"/>
      <point x="1268" y="1270" type="line"/>
      <point x="1268" y="1623" type="line"/>
      <point x="414" y="1623" type="line"/>
      <point x="414" y="1270" type="line"/>
      <point x="568" y="1270" type="line"/>
      <point x="568" y="572" type="line"/>
      <point x="568" y="462"/>
      <point x="514" y="365"/>
      <point x="457" y="365" type="qcurve"/>
      <point x="432" y="365"/>
      <point x="391" y="387"/>
      <point x="366" y="417"/>
      <point x="348" y="469"/>
      <point x="339" y="509"/>
      <point x="335" y="573"/>
      <point x="334" y="605"/>
      <point x="334" y="633" type="qcurve"/>
      <point x="30" y="633" type="line"/>
    </contour>
  </outline>
</glyph>
<glyph name="N" format="1">
  <advance width="1874"/>
  <unicode hex="004E"/>
  <outline>
    <contour>
      <point x="1814" y="1622" type="line"/>
      <point x="1177" y="1623" type="line"/>
      <point x="1177" y="1270" type="line"/>
      <point x="1216" y="1271"/>
      <point x="1274" y="1261"/>
      <point x="1307" y="1234"/>
      <point x="1327" y="1209"/>
      <point x="1334" y="1164"/>
      <point x="1335" y="1140"/>
      <point x="1335" y="1116" type="qcurve"/>
      <point x="1335" y="647" type="line"/>
      <point x="839" y="1623" type="line"/>
      <point x="104" y="1623" type="line"/>
      <point x="104" y="1272" type="line"/>
      <point x="261" y="1272" type="line"/>
      <point x="261" y="550" type="line"/>
      <point x="261" y="512"/>
      <point x="257" y="468"/>
      <point x="240" y="411"/>
      <point x="207" y="381"/>
      <point x="144" y="359"/>
      <point x="98" y="359" type="qcurve"/>
      <point x="98" y="0" type="line"/>
      <point x="735" y="0" type="line"/>
      <point x="735" y="359" type="line"/>
      <point x="650" y="359"/>
      <point x="577" y="425"/>
      <point x="577" y="507" type="qcurve"/>
      <point x="577" y="908" type="line"/>
      <point x="1050" y="0" type="line"/>
      <point x="1656" y="0" type="line"/>
      <point x="1656" y="1118" type="line"/>
      <point x="1656" y="1192"/>
      <point x="1729" y="1270"/>
      <point x="1814" y="1270" type="qcurve"/>
    </contour>
  </outline>
</glyph>
<glyph name="R" format="1">
  <advance width="1765"/>
  <unicode hex="0052"/>
  <outline>
    <contour>
      <point x="912" y="359" type="line"/>
      <point x="791" y="359" type="line"/>
      <point x="791" y="694" type="line"/>
      <point x="889" y="694" type="line"/>
      <point x="949" y="694"/>
      <point x="1025" y="660"/>
      <point x="1062" y="589"/>
      <point x="1075" y="510"/>
      <point x="1075" y="451" type="qcurve"/>
      <point x="1075" y="256" type="line"/>
      <point x="1075" y="215"/>
      <point x="1091" y="146"/>
      <point x="1115" y="96"/>
      <point x="1158" y="57"/>
      <point x="1197" y="32"/>
      <point x="1260" y="14"/>
      <point x="1306" y="5"/>
      <point x="1381" y="1"/>
      <point x="1426" y="0"/>
      <point x="1465" y="0" type="qcurve"/>
      <point x="1727" y="0" type="line"/>
      <point x="1727" y="359" type="line"/>
      <point x="1671" y="359"/>
      <point x="1604" y="372"/>
      <point x="1572" y="403"/>
      <point x="1563" y="437"/>
      <point x="1563" y="466" type="qcurve"/>
      <point x="1563" y="559" type="line"/>
      <point x="1563" y="651"/>
      <point x="1435" y="773"/>
      <point x="1286" y="807" type="qcurve"/>
      <point x="1458" y="839"/>
      <point x="1645" y="1025"/>
      <point x="1645" y="1170" type="qcurve"/>
      <point x="1645" y="1293"/>
      <point x="1571" y="1470"/>
      <point x="1428" y="1575"/>
      <point x="1239" y="1623"/>
      <point x="1116" y="1623" type="qcurve"/>
      <point x="101" y="1623" type="line"/>
      <point x="101" y="1270" type="line"/>
      <point x="256" y="1270" type="line"/>
      <point x="256" y="359" type="line"/>
      <point x="102" y="359" type="line"/>
      <point x="102" y="-1" type="line"/>
      <point x="648" y="0"/>
      <point x="912" y="0" type="qcurve"/>
    </contour>
    <contour>
      <point x="785" y="920" type="line"/>
      <point x="785" y="1270" type="line"/>
      <point x="906" y="1270" type="line"/>
      <point x="995" y="1270"/>
      <point x="1096" y="1175"/>
      <point x="1096" y="1096" type="qcurve"/>
      <point x="1096" y="1046"/>
      <point x="1054" y="974"/>
      <point x="980" y="936"/>
      <point x="897" y="920"/>
      <point x="846" y="920" type="qcurve"/>
    </contour>
  </outline>
</glyph>
<glyph name="S" format="1">
  <advance width="1329"/>
  <unicode hex="0053"/>
  <outline>
    <contour>
      <point x="874" y="1623" type="line"/>
      <point x="846" y="1575"/>
      <point x="842" y="1563" type="qcurve"/>
      <point x="723" y="1653"/>
      <point x="530" y="1653" type="qcurve"/>
      <point x="307" y="1653"/>
      <point x="74" y="1371"/>
      <point x="74" y="1133" type="qcurve"/>
      <point x="74" y="1067"/>
      <point x="93" y="953"/>
      <point x="125" y="861"/>
      <point x="177" y="780"/>
      <point x="235" y="718"/>
      <point x="315" y="662"/>
      <point x="392" y="621"/>
      <point x="494" y="581"/>
      <point x="584" y="552"/>
      <point x="643" y="535" type="qcurve"/>
      <point x="680" y="525"/>
      <point x="730" y="503"/>
      <point x="774" y="454"/>
      <point x="774" y="420" type="qcurve"/>
      <point x="774" y="379"/>
      <point x="709" y="334"/>
      <point x="665" y="334" type="qcurve"/>
      <point x="592" y="334"/>
      <point x="458" y="445"/>
      <point x="432" y="518" type="qcurve"/>
      <point x="110" y="518" type="line"/>
      <point x="110" y="0" type="line"/>
      <point x="433" y="0" type="line"/>
      <point x="469" y="92" type="line"/>
      <point x="547" y="26"/>
      <point x="690" y="-29"/>
      <point x="798" y="-29" type="qcurve"/>
      <point x="903" y="-29"/>
      <point x="1086" y="62"/>
      <point x="1209" y="212"/>
      <point x="1278" y="406"/>
      <point x="1276" y="508" type="qcurve"/>
      <point x="1274" y="612"/>
      <point x="1221" y="781"/>
      <point x="1135" y="894"/>
      <point x="1025" y="981"/>
      <point x="904" y="1034"/>
      <point x="783" y="1076"/>
      <point x="674" y="1107"/>
      <point x="590" y="1139"/>
      <point x="541" y="1183"/>
      <point x="541" y="1213" type="qcurve"/>
      <point x="541" y="1259"/>
      <point x="591" y="1305"/>
      <point x="635" y="1305" type="qcurve"/>
      <point x="710" y="1305"/>
      <point x="834" y="1185"/>
      <point x="852" y="1107" type="qcurve"/>
      <point x="1159" y="1107" type="line"/>
      <point x="1159" y="1623" type="line"/>
    </contour>
  </outline>
</glyph>
<glyph name="T" format="1">
  <advance width="1535"/>
  <unicode hex="0054"/>
  <outline>
    <contour>
      <point x="1496" y="965" type="line"/>
      <point x="1496" y="1622" type="line"/>
      <point x="39" y="1622" type="line"/>
      <point x="39" y="965" type="line"/>
      <point x="320" y="965" type="line"/>
      <point x="384" y="1270" type="line"/>
      <point x="484" y="1270" type="line"/>
      <point x="484" y="360" type="line"/>
      <point x="320" y="360" type="line"/>
      <point x="320" y="0" type="line"/>
      <point x="1211" y="0" type="line"/>
      <point x="1211" y="360" type="line"/>
      <point x="1047" y="360" type="line"/>
      <point x="1047" y="1270" type="line"/>
      <point x="1153" y="1270" type="line"/>
      <point x="1215" y="965" type="line"/>
    </contour>
  </outline>
</glyph>
<glyph name="X" format="1">
  <advance width="1863"/>
  <unicode hex="0058"/>
  <outline>
    <contour>
      <point x="1798" y="1623" type="line"/>
      <point x="1061" y="1623" type="line"/>
      <point x="1061" y="1270" type="line"/>
      <point x="1084" y="1270"/>
      <point x="1147" y="1245"/>
      <point x="1147" y="1226" type="qcurve"/>
      <point x="1147" y="1210"/>
      <point x="1102" y="1129"/>
      <point x="1079" y="1096" type="qcurve"/>
      <point x="1057" y="1064" type="line"/>
      <point x="895" y="1270" type="line"/>
      <point x="977" y="1270" type="line"/>
      <point x="977" y="1623" type="line"/>
      <point x="99" y="1623" type="line"/>
      <point x="99" y="1270" type="line"/>
      <point x="230" y="1270" type="line"/>
      <point x="601" y="862" type="line"/>
      <point x="314" y="493" type="line"/>
      <point x="253" y="408"/>
      <point x="138" y="359"/>
      <point x="8" y="359" type="qcurve"/>
      <point x="8" y="0" type="line"/>
      <point x="836" y="0" type="line"/>
      <point x="830" y="359" type="line"/>
      <point x="746" y="359" type="line"/>
      <point x="720" y="359"/>
      <point x="682" y="393"/>
      <point x="682" y="420" type="qcurve"/>
      <point x="682" y="434"/>
      <point x="695" y="473"/>
      <point x="703" y="483" type="qcurve"/>
      <point x="813" y="634" type="line"/>
      <point x="1056" y="359" type="line"/>
      <point x="930" y="359" type="line"/>
      <point x="930" y="0" type="line"/>
      <point x="1829" y="0" type="line"/>
      <point x="1829" y="359" type="line"/>
      <point x="1707" y="359" type="line"/>
      <point x="1278" y="829" type="line"/>
      <point x="1536" y="1180" type="line"/>
      <point x="1574" y="1233"/>
      <point x="1706" y="1270"/>
      <point x="1798" y="1270" type="qcurve"/>
    </contour>
  </outline>
</glyph>
<glyph name="backslash" format="1">
  <advance width="1031"/>
  <unicode hex="005C"/>
  <outline>
    <contour>
      <point x="400" y="0" type="line"/>
      <point x="58" y="1623" type="line"/>
      <point x="632" y="1623" type="line"/>
      <point x="973" y="0" type="line"/>
    </contour>
  </outline>
</glyph>
<glyph name="asciicircum" format="1">
  <advance width="1707"/>
  <unicode hex="005E"/>
  <outline>
    <contour>
      <point x="1088" y="1624" type="line"/>
      <point x="1584" y="909" type="line"/>
      <point x="1119" y="909" type="line"/>
      <point x="903" y="1242" type="line"/>
      <point x="687" y="909" type="line"/>
      <point x="222" y="909" type="line"/>
      <point x="718" y="1624" type="line"/>
    </contour>
  </outline>
</glyph>
<glyph name="grave" format="1">
  <advance width="1016"/>
  <unicode hex="0060"/>
  <outline>
    <contour>
      <point x="281" y="1708" type="line"/>
      <point x="755" y="1271" type="line"/>
      <point x="651" y="1130" type="line"/>
      <point x="97" y="1443" type="line"/>
    </contour>
  </outline>
</glyph>
<glyph name="f" format="1">
  <advance width="875"/>
  <unicode hex="0066"/>
  <outline>
    <contour>
      <point x="175" y="1207" type="qcurve"/>
      <point x="177" y="1075"/>
      <point x="177" y="1072" type="qcurve"/>
      <point x="94" y="1072" type="line"/>
      <point x="94" y="761" type="line"/>
      <point x="178" y="761" type="line"/>
      <point x="178" y="305" type="line"/>
      <point x="94" y="305" type="line"/>
      <point x="94" y="0" type="line"/>
      <point x="774" y="0" type="line"/>
      <point x="774" y="305" type="line"/>
      <point x="664" y="305" type="line"/>
      <point x="664" y="761" type="line"/>
      <point x="836" y="761" type="line"/>
      <point x="836" y="1072" type="line"/>
      <point x="657" y="1072" type="line"/>
      <point x="651" y="1180"/>
      <point x="704" y="1265"/>
      <point x="767" y="1265" type="qcurve"/>
      <point x="805" y="1265"/>
      <point x="863" y="1252" type="qcurve"/>
      <point x="863" y="1563" type="line"/>
      <point x="849" y="1568"/>
      <point x="796" y="1584"/>
      <point x="635" y="1610"/>
      <point x="555" y="1610" type="qcurve"/>
      <point x="175" y="1610"/>
    </contour>
  </outline>
</glyph>
<glyph name="j" format="1">
  <advance width="772"/>
  <unicode hex="006A"/>
  <outline>
    <contour>
      <point x="49" y="-72" type="qcurve"/>
      <point x="51" y="-398" type="line"/>
      <point x="224" y="-398"/>
      <point x="459" y="-334"/>
      <point x="597" y="-198"/>
      <point x="655" y="-8"/>
      <point x="655" y="129" type="qcurve"/>
      <point x="655" y="1072" type="line"/>
      <point x="66" y="1072" type="line"/>
      <point x="66" y="760" type="line"/>
      <point x="156" y="760" type="line"/>
      <point x="156" y="-9" type="line"/>
      <point x="156" y="-46"/>
      <point x="85" y="-76"/>
    </contour>
    <contour>
      <point x="371" y="1135" type="qcurve"/>
      <point x="252" y="1135"/>
      <point x="94" y="1270"/>
      <point x="94" y="1385" type="qcurve"/>
      <point x="94" y="1498"/>
      <point x="249" y="1630"/>
      <point x="371" y="1630" type="qcurve"/>
      <point x="498" y="1630"/>
      <point x="658" y="1498"/>
      <point x="658" y="1385" type="qcurve"/>
      <point x="658" y="1270"/>
      <point x="493" y="1135"/>
    </contour>
  </outline>
</glyph>
<glyph name="k" format="1">
  <advance width="1413"/>
  <unicode hex="006B"/>
  <outline>
    <contour>
      <point x="931" y="0" type="line"/>
      <point x="1384" y="0" type="line"/>
      <point x="1384" y="305" type="line"/>
      <point x="1269" y="305" type="line"/>
      <point x="1042" y="618" type="line"/>
      <point x="1042" y="644" type="line"/>
      <point x="1185" y="761" type="line"/>
      <point x="1336" y="761" type="line"/>
      <point x="1336" y="1072" type="line"/>
      <point x="752" y="1072" type="line"/>
      <point x="752" y="761" type="line"/>
      <point x="847" y="761" type="line"/>
      <point x="646" y="587" type="line"/>
      <point x="646" y="1634" type="line"/>
      <point x="68" y="1634" type="line"/>
      <point x="68" y="1330" type="line"/>
      <point x="152" y="1330" type="line"/>
      <point x="152" y="305" type="line"/>
      <point x="69" y="305" type="line"/>
      <point x="69" y="0" type="line"/>
      <point x="646" y="0" type="line"/>
      <point x="646" y="438" type="line"/>
    </contour>
  </outline>
</glyph>
<glyph name="n" format="1">
  <advance width="1483"/>
  <unicode hex="006E"/>
  <outline>
    <contour>
      <point x="661" y="1072" type="line"/>
      <point x="98" y="1072" type="line"/>
      <point x="98" y="761" type="line"/>
      <point x="174" y="761" type="line"/>
      <point x="174" y="305" type="line"/>
      <point x="91" y="305" type="line"/>
      <point x="91" y="0" type="line"/>
      <point x="749" y="0" type="line"/>
      <point x="749" y="305" type="line"/>
      <point x="661" y="305" type="line"/>
      <point x="661" y="624" type="line"/>
      <point x="661" y="671"/>
      <point x="718" y="737"/>
      <point x="765" y="737" type="qcurve"/>
      <point x="801" y="737"/>
      <point x="855" y="675"/>
      <point x="855" y="627" type="qcurve"/>
      <point x="855" y="0" type="line"/>
      <point x="1429" y="0" type="line"/>
      <point x="1429" y="305" type="line"/>
      <point x="1349" y="305" type="line"/>
      <point x="1349" y="680" type="line"/>
      <point x="1349" y="1092"/>
      <point x="1019" y="1092" type="qcurve"/>
      <point x="901" y="1092"/>
      <point x="716" y="1001"/>
      <point x="661" y="916" type="qcurve"/>
    </contour>
  </outline>
</glyph>
<glyph name="o" format="1">
  <advance width="1290"/>
  <unicode hex="006F"/>
  <outline>
    <contour>
      <point x="43" y="547" type="qcurve"/>
      <point x="43" y="807"/>
      <point x="365" y="1091"/>
      <point x="925" y="1091"/>
      <point x="1247" y="807"/>
      <point x="1247" y="547" type="qcurve"/>
      <point x="1247" y="372"/>
      <point x="1094" y="114"/>
      <point x="823" y="-18"/>
      <point x="467" y="-18"/>
      <point x="196" y="114"/>
      <point x="43" y="372"/>
    </contour>
    <contour>
      <point x="508" y="545" type="qcurve"/>
      <point x="508" y="294"/>
      <point x="782" y="294"/>
      <point x="782" y="545" type="qcurve"/>
      <point x="782" y="596"/>
      <point x="773" y="667"/>
      <point x="747" y="741"/>
      <point x="689" y="779"/>
      <point x="601" y="779"/>
      <point x="543" y="741"/>
      <point x="517" y="667"/>
      <point x="508" y="596"/>
    </contour>
  </outline>
</glyph>
<glyph name="q" format="1">
  <advance width="1438"/>
  <unicode hex="0071"/>
  <outline>
    <contour>
      <point x="698" y="-397" type="line"/>
      <point x="698" y="-96" type="line"/>
      <point x="809" y="-96" type="line"/>
      <point x="809" y="128" type="line"/>
      <point x="776" y="100"/>
      <point x="748" y="77"/>
      <point x="676" y="27"/>
      <point x="622" y="4"/>
      <point x="540" y="-17"/>
      <point x="498" y="-17" type="qcurve"/>
      <point x="406" y="-17"/>
      <point x="254" y="49"/>
      <point x="150" y="162"/>
      <point x="78" y="314"/>
      <point x="45" y="481"/>
      <point x="45" y="571" type="qcurve"/>
      <point x="45" y="673"/>
      <point x="110" y="861"/>
      <point x="226" y="1006"/>
      <point x="402" y="1092"/>
      <point x="506" y="1092" type="qcurve"/>
      <point x="603" y="1092"/>
      <point x="738" y="1042"/>
      <point x="808" y="985" type="qcurve"/>
      <point x="818" y="985" type="line"/>
      <point x="882" y="1072" type="line"/>
      <point x="1362" y="1072" type="line"/>
      <point x="1362" y="761" type="line"/>
      <point x="1288" y="761" type="line"/>
      <point x="1288" y="-94" type="line"/>
      <point x="1372" y="-94" type="line"/>
      <point x="1372" y="-398" type="line"/>
    </contour>
    <contour>
      <point x="809" y="526" type="qcurve"/>
      <point x="815" y="557"/>
      <point x="804" y="641"/>
      <point x="782" y="716"/>
      <point x="721" y="768"/>
      <point x="677" y="768" type="qcurve"/>
      <point x="534" y="768"/>
      <point x="534" y="554" type="qcurve"/>
      <point x="534" y="496"/>
      <point x="556" y="402"/>
      <point x="625" y="329"/>
      <point x="680" y="329" type="qcurve"/>
      <point x="724" y="329"/>
      <point x="785" y="395"/>
      <point x="809" y="481"/>
    </contour>
  </outline>
</glyph>
<glyph name="v" format="1">
  <advance width="1314"/>
  <unicode hex="0076"/>
  <outline>
    <contour>
      <point x="762" y="1072" type="line"/>
      <point x="762" y="761" type="line"/>
      <point x="822" y="761"/>
      <point x="877" y="723"/>
      <point x="861" y="680" type="qcurve"/>
      <point x="730" y="338" type="line"/>
      <point x="561" y="761" type="line"/>
      <point x="652" y="761" type="line"/>
      <point x="652" y="1072" type="line"/>
      <point x="8" y="1072" type="line"/>
      <point x="8" y="761" type="line"/>
      <point x="82" y="761" type="line"/>
      <point x="402" y="0" type="line"/>
      <point x="875" y="0" type="line"/>
      <point x="1166" y="682" type="line"/>
      <point x="1183" y="723"/>
      <point x="1243" y="761"/>
      <point x="1309" y="761" type="qcurve"/>
      <point x="1309" y="1072" type="line"/>
    </contour>
  </outline>
</glyph>
<glyph name="w" format="1">
  <advance width="1929"/>
  <unicode hex="0077"/>
  <outline>
    <contour>
      <point x="797" y="0" type="line"/>
      <point x="948" y="430" type="line"/>
      <point x="1078" y="0" type="line"/>
      <point x="1553" y="0" type="line"/>
      <point x="1706" y="483" type="line"/>
      <point x="1712" y="503"/>
      <point x="1733" y="578"/>
      <point x="1746" y="619"/>
      <point x="1770" y="679"/>
      <point x="1796" y="712"/>
      <point x="1835" y="746"/>
      <point x="1888" y="761"/>
      <point x="1921" y="761" type="qcurve"/>
      <point x="1921" y="1072" type="line"/>
      <point x="1364" y="1072" type="line"/>
      <point x="1364" y="761" type="line"/>
      <point x="1376" y="761"/>
      <point x="1393" y="760"/>
      <point x="1418" y="759"/>
      <point x="1434" y="754"/>
      <point x="1454" y="747"/>
      <point x="1464" y="735"/>
      <point x="1472" y="719"/>
      <point x="1472" y="696"/>
      <point x="1468" y="682" type="qcurve"/>
      <point x="1383" y="380" type="line"/>
      <point x="1364" y="430"/>
      <point x="1255" y="776"/>
      <point x="1210" y="924" type="qcurve"/>
      <point x="1165" y="1072" type="line"/>
      <point x="899" y="1072" type="line"/>
      <point x="689" y="392" type="line"/>
      <point x="576" y="761" type="line"/>
      <point x="690" y="761" type="line"/>
      <point x="690" y="1072" type="line"/>
      <point x="26" y="1072" type="line"/>
      <point x="26" y="761" type="line"/>
      <point x="95" y="761" type="line"/>
      <point x="353" y="0" type="line"/>
    </contour>
  </outline>
</glyph>
<glyph name="x" format="1">
  <advance width="1199"/>
  <unicode hex="0078"/>
  <outline>
    <contour>
      <point x="1166" y="305" type="line"/>
      <point x="1055" y="305" type="line"/>
      <point x="862" y="580" type="line"/>
      <point x="1025" y="761" type="line"/>
      <point x="1135" y="761" type="line"/>
      <point x="1135" y="1072" type="line"/>
      <point x="881" y="1072" type="line"/>
      <point x="696" y="821" type="line"/>
      <point x="534" y="1072" type="line"/>
      <point x="60" y="1072" type="line"/>
      <point x="60" y="761" type="line"/>
      <point x="169" y="761" type="line"/>
      <point x="351" y="512" type="line"/>
      <point x="171" y="305" type="line"/>
      <point x="40" y="305" type="line"/>
      <point x="40" y="0" type="line"/>
      <point x="317" y="0" type="line"/>
      <point x="524" y="277" type="line"/>
      <point x="713" y="0" type="line"/>
      <point x="1166" y="0" type="line"/>
    </contour>
  </outline>
</glyph>
<glyph name="braceleft" format="1">
  <advance width="873"/>
  <unicode hex="007B"/>
  <outline>
    <contour>
      <point x="169" y="1128" type="qcurve"/>
      <point x="169" y="1096"/>
      <point x="158" y="1048"/>
      <point x="127" y="997"/>
      <point x="57" y="967"/>
      <point x="4" y="965" type="qcurve"/>
      <point x="4" y="722" type="line"/>
      <point x="57" y="720"/>
      <point x="127" y="690"/>
      <point x="158" y="639"/>
      <point x="169" y="591"/>
      <point x="169" y="559" type="qcurve"/>
      <point x="169" y="441"/>
      <point x="248" y="236"/>
      <point x="402" y="75"/>
      <point x="654" y="-17"/>
      <point x="815" y="-17" type="qcurve"/>
      <point x="815" y="314" type="line"/>
      <point x="653" y="314"/>
      <point x="653" y="560" type="qcurve"/>
      <point x="653" y="751"/>
      <point x="402" y="843" type="qcurve"/>
      <point x="653" y="936"/>
      <point x="653" y="1127" type="qcurve"/>
      <point x="653" y="1373"/>
      <point x="815" y="1373" type="qcurve"/>
      <point x="815" y="1704" type="line"/>
      <point x="654" y="1704"/>
      <point x="402" y="1612"/>
      <point x="248" y="1451"/>
      <point x="169" y="1246"/>
    </contour>
  </outline>
</glyph>
<glyph name="asciitilde" format="1">
  <advance width="1289"/>
  <unicode hex="007E"/>
  <outline>
    <contour>
      <point x="914" y="629" type="qcurve"/>
      <point x="972" y="629"/>
      <point x="1064" y="681"/>
      <point x="1132" y="776"/>
      <point x="1181" y="871"/>
      <point x="1242" y="996"/>
      <point x="1266" y="1032" type="qcurve"/>
      <point x="1137" y="1117" type="line"/>
      <point x="1034" y="993"/>
      <point x="953" y="923"/>
      <point x="928" y="923" type="qcurve"/>
      <point x="884" y="923"/>
      <point x="778" y="964"/>
      <point x="677" y="1022"/>
      <point x="573" y="1081"/>
      <point x="454" y="1122"/>
      <point x="399" y="1122" type="qcurve"/>
      <point x="341" y="1122"/>
      <point x="248" y="1071"/>
      <point x="180" y="976"/>
      <point x="130" y="883"/>
      <point x="69" y="757"/>
      <point x="45" y="720" type="qcurve"/>
      <point x="176" y="634" type="line"/>
      <point x="285" y="764"/>
      <point x="361" y="832"/>
      <point x="388" y="832" type="qcurve"/>
      <point x="432" y="832"/>
      <point x="537" y="790"/>
      <point x="636" y="730"/>
      <point x="740" y="671"/>
      <point x="859" y="629"/>
    </contour>
  </outline>
</glyph>
<glyph name="cent" format="1">
  <advance width="1149"/>
  <unicode hex="00A2"/>
  <outline>
    <contour>
      <point x="621" y="1362" type="line"/>
      <point x="621" y="1089" type="line"/>
      <point x="598" y="1092"/>
      <point x="575" y="1092" type="qcurve"/>
      <point x="458" y="1092"/>
      <point x="260" y="1003"/>
      <point x="129" y="853"/>
      <point x="56" y="655"/>
      <point x="56" y="546" type="qcurve"/>
      <point x="56" y="368"/>
      <point x="203" y="109"/>
      <point x="450" y="-18"/>
      <point x="608" y="-18" type="qcurve"/>
      <point x="621" y="-18" type="line"/>
      <point x="621" y="-261" type="line"/>
      <point x="733" y="-261" type="line"/>
      <point x="733" y="-9" type="line"/>
      <point x="948" y="21"/>
      <point x="1051" y="124" type="qcurve"/>
      <point x="1051" y="425" type="line"/>
      <point x="811" y="425" type="line"/>
      <point x="811" y="421"/>
      <point x="808" y="409"/>
      <point x="798" y="375"/>
      <point x="782" y="345"/>
      <point x="752" y="313"/>
      <point x="733" y="305" type="qcurve"/>
      <point x="733" y="766" type="line"/>
      <point x="766" y="750"/>
      <point x="807" y="677"/>
      <point x="807" y="628" type="qcurve"/>
      <point x="1049" y="628" type="line"/>
      <point x="1049" y="1072" type="line"/>
      <point x="874" y="1072" type="line"/>
      <point x="833" y="995" type="line"/>
      <point x="783" y="1034"/>
      <point x="733" y="1057" type="qcurve"/>
      <point x="733" y="1362" type="line"/>
    </contour>
    <contour>
      <point x="529" y="513" type="qcurve"/>
      <point x="529" y="701"/>
      <point x="621" y="759" type="qcurve"/>
      <point x="621" y="309" type="line"/>
      <point x="573" y="332"/>
      <point x="529" y="446"/>
    </contour>
  </outline>
</glyph>
<glyph name="brokenbar" format="1">
  <advance width="687"/>
  <unicode hex="00A6"/>
  <outline>
    <contour>
      <point x="146" y="721" type="line"/>
      <point x="146" y="0" type="line"/>
      <point x="541" y="0" type="line"/>
      <point x="541" y="721" type="line"/>
    </contour>
    <contour>
      <point x="146" y="1623" type="line"/>
      <point x="146" y="902" type="line"/>
      <point x="541" y="902" type="line"/>
      <point x="541" y="1623" type="line"/>
    </contour>
  </outline>
</glyph>
<glyph name="dieresis" format="1">
  <advance width="1707"/>
  <unicode hex="00A8"/>
  <outline>
    <contour>
      <point x="720" y="1342" type="qcurve"/>
      <point x="720" y="1234"/>
      <point x="587" y="1112"/>
      <point x="496" y="1112" type="qcurve"/>
      <point x="403" y="1112"/>
      <point x="268" y="1235"/>
      <point x="268" y="1345" type="qcurve"/>
      <point x="268" y="1452"/>
      <point x="402" y="1572"/>
      <point x="586" y="1572"/>
      <point x="720" y="1451"/>
    </contour>
    <contour>
      <point x="1337" y="1342" type="qcurve"/>
      <point x="1337" y="1234"/>
      <point x="1204" y="1112"/>
      <point x="1113" y="1112" type="qcurve"/>
      <point x="1020" y="1112"/>
      <point x="885" y="1235"/>
      <point x="885" y="1345" type="qcurve"/>
      <point x="885" y="1452"/>
      <point x="1019" y="1572"/>
      <point x="1203" y="1572"/>
      <point x="1337" y="1451"/>
    </contour>
  </outline>
</glyph>
<glyph name="guillemotleft" format="1">
  <advance width="1306"/>
  <unicode hex="00AB"/>
  <outline>
    <contour>
      <point x="643" y="399" type="line"/>
      <point x="1069" y="-5" type="line"/>
      <point x="1260" y="219" type="line"/>
      <point x="945" y="534" type="line"/>
      <point x="1260" y="849" type="line"/>
      <point x="1069" y="1073" type="line"/>
      <point x="643" y="669" type="line"/>
    </contour>
    <contour>
      <point x="33" y="399" type="line"/>
      <point x="459" y="-5" type="line"/>
      <point x="650" y="219" type="line"/>
      <point x="335" y="534" type="line"/>
      <point x="650" y="849" type="line"/>
      <point x="459" y="1073" type="line"/>
      <point x="33" y="669" type="line"/>
    </contour>
  </outline>
</glyph>
<glyph name="logicalnot" format="1">
  <advance width="1195"/>
  <unicode hex="00AC"/>
  <outline>
    <contour>
      <point x="78" y="1092" type="line"/>
      <point x="1089" y="1092" type="line"/>
      <point x="1089" y="542" type="line"/>
      <point x="858" y="542" type="line"/>
      <point x="858" y="761" type="line"/>
      <point x="79" y="761" type="line"/>
    </contour>
  </outline>
</glyph>
<glyph name="uni00AD" format="1">
  <advance width="774"/>
  <unicode hex="00AD"/>
  <outline>
    <contour>
      <point x="70" y="836" type="line"/>
      <point x="70" y="537" type="line"/>
      <point x="717" y="537" type="line"/>
      <point x="717" y="836" type="line"/>
    </contour>
  </outline>
</glyph>
<glyph name="registered" format="1">
  <advance width="1806"/>
  <unicode hex="00AE"/>
  <outline>
    <contour>
      <point x="129" y="1106" type="qcurve"/>
      <point x="63" y="956"/>
      <point x="63" y="628"/>
      <point x="196" y="328"/>
      <point x="421" y="111"/>
      <point x="732" y="-18"/>
      <point x="1074" y="-18"/>
      <point x="1385" y="111"/>
      <point x="1610" y="328"/>
      <point x="1743" y="628"/>
      <point x="1743" y="956"/>
      <point x="1610" y="1256"/>
      <point x="1385" y="1473"/>
      <point x="1074" y="1602"/>
      <point x="732" y="1602"/>
      <point x="421" y="1473"/>
      <point x="196" y="1256"/>
    </contour>
    <contour>
      <point x="903" y="1448" type="qcurve"/>
      <point x="1083" y="1448"/>
      <point x="1390" y="1272"/>
      <point x="1569" y="970"/>
      <point x="1569" y="614"/>
      <point x="1390" y="312"/>
      <point x="1083" y="136"/>
      <point x="903" y="136" type="qcurve"/>
      <point x="768" y="136"/>
      <point x="522" y="240"/>
      <point x="343" y="416"/>
      <point x="237" y="659"/>
      <point x="237" y="925"/>
      <point x="343" y="1168"/>
      <point x="522" y="1344"/>
      <point x="768" y="1448"/>
    </contour>
    <contour>
      <point x="923" y="568" type="line"/>
      <point x="856" y="568" type="line"/>
      <point x="856" y="749" type="line"/>
      <point x="910" y="749" type="line"/>
      <point x="973" y="749"/>
      <point x="1014" y="681"/>
      <point x="1014" y="614" type="qcurve"/>
      <point x="1014" y="505" type="line"/>
      <point x="1014" y="464"/>
      <point x="1042" y="408"/>
      <point x="1078" y="380"/>
      <point x="1146" y="365"/>
      <point x="1190" y="363"/>
      <point x="1230" y="363" type="qcurve"/>
      <point x="1376" y="363" type="line"/>
      <point x="1376" y="562" type="line"/>
      <point x="1318" y="562"/>
      <point x="1285" y="589"/>
      <point x="1285" y="622" type="qcurve"/>
      <point x="1285" y="674" type="line"/>
      <point x="1285" y="725"/>
      <point x="1213" y="793"/>
      <point x="1131" y="812" type="qcurve"/>
      <point x="1227" y="829"/>
      <point x="1331" y="933"/>
      <point x="1331" y="1014" type="qcurve"/>
      <point x="1331" y="1147"/>
      <point x="1178" y="1265"/>
      <point x="1036" y="1265" type="qcurve"/>
      <point x="472" y="1265" type="line"/>
      <point x="472" y="1061" type="line"/>
      <point x="558" y="1061" type="line"/>
      <point x="558" y="565" type="line"/>
      <point x="473" y="565" type="line"/>
      <point x="473" y="362" type="line"/>
      <point x="776" y="363"/>
      <point x="923" y="363" type="qcurve"/>
    </contour>
    <contour>
      <point x="852" y="875" type="line"/>
      <point x="852" y="1071" type="line"/>
      <point x="920" y="1071" type="line"/>
      <point x="969" y="1071"/>
      <point x="1025" y="1016"/>
      <point x="1025" y="972" type="qcurve"/>
      <point x="1025" y="875"/>
      <point x="886" y="875" type="qcurve"/>
    </contour>
  </outline>
</glyph>
<glyph name="degree" format="1">
  <advance width="781"/>
  <unicode hex="00B0"/>
  <outline>
    <contour>
      <point x="385" y="1092" type="qcurve"/>
      <point x="292" y="1092"/>
      <point x="184" y="1214"/>
      <point x="184" y="1296" type="qcurve"/>
      <point x="184" y="1377"/>
      <point x="290" y="1495"/>
      <point x="385" y="1495" type="qcurve"/>
      <point x="483" y="1495"/>
      <point x="593" y="1377"/>
      <point x="593" y="1296" type="qcurve"/>
      <point x="593" y="1213"/>
      <point x="482" y="1092"/>
    </contour>
    <contour>
      <point x="385" y="951" type="qcurve"/>
      <point x="472" y="951"/>
      <point x="614" y="1010"/>
      <point x="703" y="1109"/>
      <point x="751" y="1231"/>
      <point x="751" y="1297" type="qcurve"/>
      <point x="751" y="1362"/>
      <point x="704" y="1480"/>
      <point x="616" y="1576"/>
      <point x="474" y="1633"/>
      <point x="385" y="1633" type="qcurve"/>
      <point x="300" y="1633"/>
      <point x="162" y="1576"/>
      <point x="77" y="1480"/>
      <point x="32" y="1361"/>
      <point x="32" y="1297" type="qcurve"/>
      <point x="32" y="1231"/>
      <point x="78" y="1109"/>
      <point x="164" y="1010"/>
      <point x="301" y="951"/>
    </contour>
  </outline>
</glyph>
<glyph name="plusminus" format="1">
  <advance width="849"/>
  <unicode hex="00B1"/>
  <outline>
    <contour>
      <point x="99" y="223" type="line"/>
      <point x="99" y="-1" type="line"/>
      <point x="746" y="-1" type="line"/>
      <point x="746" y="223" type="line"/>
    </contour>
    <contour>
      <point x="69" y="517" type="line"/>
      <point x="301" y="517" type="line"/>
      <point x="301" y="278" type="line"/>
      <point x="556" y="278" type="line"/>
      <point x="556" y="517" type="line"/>
      <point x="781" y="517" type="line"/>
      <point x="781" y="762" type="line"/>
      <point x="556" y="762" type="line"/>
      <point x="556" y="1031" type="line"/>
      <point x="301" y="1031" type="line"/>
      <point x="301" y="762" type="line"/>
      <point x="69" y="762" type="line"/>
    </contour>
  </outline>
</glyph>
<glyph name="twosuperior" format="1">
  <advance width="864"/>
  <unicode hex="00B2"/>
  <outline>
    <contour>
      <point x="790" y="286" type="line"/>
      <point x="790" y="570" type="line"/>
      <point x="686" y="570" type="line"/>
      <point x="686" y="519"/>
      <point x="617" y="483"/>
      <point x="556" y="481" type="qcurve"/>
      <point x="459" y="481" type="line"/>
      <point x="624" y="605"/>
      <point x="675" y="671" type="qcurve"/>
      <point x="739" y="752"/>
      <point x="739" y="845" type="qcurve"/>
      <point x="739" y="971"/>
      <point x="561" y="1116"/>
      <point x="425" y="1121" type="qcurve"/>
      <point x="342" y="1124"/>
      <point x="186" y="1067"/>
      <point x="79" y="941"/>
      <point x="79" y="858" type="qcurve"/>
      <point x="76" y="721"/>
      <point x="168" y="639" type="qcurve"/>
      <point x="305" y="744" type="line"/>
      <point x="267" y="779"/>
      <point x="267" y="821" type="qcurve"/>
      <point x="267" y="858"/>
      <point x="310" y="907"/>
      <point x="349" y="907" type="qcurve"/>
      <point x="380" y="907"/>
      <point x="428" y="849"/>
      <point x="431" y="803" type="qcurve"/>
      <point x="431" y="754"/>
      <point x="389" y="667"/>
      <point x="342" y="618"/>
      <point x="296" y="579" type="qcurve"/>
      <point x="218" y="514"/>
      <point x="102" y="468" type="qcurve"/>
      <point x="102" y="286" type="line"/>
    </contour>
  </outline>
</glyph>
<glyph name="threesuperior" format="1">
  <advance width="824"/>
  <unicode hex="00B3"/>
  <outline>
    <contour>
      <point x="87" y="529" type="qcurve"/>
      <point x="87" y="326" type="line"/>
      <point x="140" y="291"/>
      <point x="272" y="270"/>
      <point x="365" y="270" type="qcurve"/>
      <point x="541" y="270"/>
      <point x="745" y="420"/>
      <point x="745" y="558" type="qcurve"/>
      <point x="745" y="640"/>
      <point x="624" y="771"/>
      <point x="539" y="779" type="qcurve"/>
      <point x="706" y="916"/>
      <point x="706" y="918" type="qcurve"/>
      <point x="706" y="1072" type="line"/>
      <point x="80" y="1072" type="line"/>
      <point x="80" y="807" type="line"/>
      <point x="193" y="806" type="line"/>
      <point x="200" y="833"/>
      <point x="207" y="852"/>
      <point x="224" y="881"/>
      <point x="252" y="890"/>
      <point x="274" y="890" type="qcurve"/>
      <point x="402" y="890" type="line"/>
      <point x="402" y="884" type="line"/>
      <point x="202" y="714" type="line"/>
      <point x="202" y="621" type="line"/>
      <point x="202" y="621"/>
      <point x="203" y="618" type="qcurve"/>
      <point x="214" y="616" type="line"/>
      <point x="218" y="616"/>
      <point x="266" y="627"/>
      <point x="289" y="627" type="qcurve"/>
      <point x="347" y="627"/>
      <point x="435" y="581"/>
      <point x="435" y="529" type="qcurve"/>
      <point x="435" y="484"/>
      <point x="355" y="443"/>
      <point x="304" y="443" type="qcurve"/>
      <point x="193" y="443"/>
    </contour>
  </outline>
</glyph>
<glyph name="acute" format="1">
  <advance width="1016"/>
  <unicode hex="00B4"/>
  <outline>
    <contour>
      <point x="667" y="1708" type="line"/>
      <point x="193" y="1271" type="line"/>
      <point x="297" y="1130" type="line"/>
      <point x="851" y="1443" type="line"/>
    </contour>
  </outline>
</glyph>
<glyph name="mu" format="1">
  <advance width="1468"/>
  <unicode hex="00B5"/>
  <outline>
    <contour>
      <point x="827" y="0" type="line"/>
      <point x="1397" y="0" type="line"/>
      <point x="1397" y="305" type="line"/>
      <point x="1321" y="305" type="line"/>
      <point x="1321" y="1072" type="line"/>
      <point x="746" y="1072" type="line"/>
      <point x="746" y="761" type="line"/>
      <point x="827" y="761" type="line"/>
      <point x="827" y="438" type="line"/>
      <point x="827" y="387"/>
      <point x="770" y="318"/>
      <point x="723" y="318" type="qcurve"/>
      <point x="687" y="318"/>
      <point x="633" y="385"/>
      <point x="633" y="438" type="qcurve"/>
      <point x="633" y="1072" type="line"/>
      <point x="59" y="1072" type="line"/>
      <point x="59" y="761" type="line"/>
      <point x="139" y="761" type="line"/>
      <point x="139" y="385" type="line"/>
      <point x="139" y="-18"/>
      <point x="469" y="-18" type="qcurve"/>
      <point x="587" y="-18"/>
      <point x="772" y="71"/>
      <point x="827" y="156" type="qcurve"/>
    </contour>
  </outline>
</glyph>
<glyph name="cedilla" format="1">
  <advance width="502"/>
  <unicode hex="00B8"/>
  <outline>
    <contour>
      <point x="147" y="-119" type="line"/>
      <point x="193" y="-145"/>
      <point x="257" y="-231"/>
      <point x="257" y="-271" type="qcurve"/>
      <point x="257" y="-315"/>
      <point x="167" y="-371"/>
      <point x="70" y="-372" type="qcurve"/>
      <point x="70" y="-485" type="line"/>
      <point x="91" y="-485" type="line"/>
      <point x="243" y="-485"/>
      <point x="460" y="-367"/>
      <point x="460" y="-285" type="qcurve"/>
      <point x="460" y="-196"/>
      <point x="327" y="-119" type="qcurve"/>
      <point x="327" y="0" type="line"/>
      <point x="147" y="0" type="line"/>
    </contour>
  </outline>
</glyph>
<glyph name="onesuperior" format="1">
  <advance width="615"/>
  <unicode hex="00B9"/>
  <outline>
    <contour>
      <point x="520" y="286" type="line"/>
      <point x="520" y="476" type="line"/>
      <point x="464" y="476" type="line"/>
      <point x="460" y="1091" type="line"/>
      <point x="73" y="993" type="line"/>
      <point x="73" y="842" type="line"/>
      <point x="169" y="843" type="line"/>
      <point x="169" y="476" type="line"/>
      <point x="116" y="476" type="line"/>
      <point x="117" y="286" type="line"/>
    </contour>
  </outline>
</glyph>
<glyph name="ordmasculine" format="1">
  <advance width="1032"/>
  <unicode hex="00BA"/>
  <outline>
    <contour>
      <point x="70" y="688" type="qcurve"/>
      <point x="70" y="881"/>
      <point x="309" y="1091"/>
      <point x="516" y="1091" type="qcurve"/>
      <point x="724" y="1091"/>
      <point x="962" y="881"/>
      <point x="962" y="688" type="qcurve"/>
      <point x="962" y="493"/>
      <point x="717" y="270"/>
      <point x="315" y="270"/>
      <point x="70" y="493"/>
    </contour>
    <contour>
      <point x="415" y="686" type="qcurve"/>
      <point x="415" y="501"/>
      <point x="516" y="501" type="qcurve"/>
      <point x="618" y="501"/>
      <point x="618" y="686" type="qcurve"/>
      <point x="618" y="724"/>
      <point x="611" y="777"/>
      <point x="592" y="832"/>
      <point x="549" y="860"/>
      <point x="483" y="860"/>
      <point x="441" y="832"/>
      <point x="421" y="777"/>
      <point x="415" y="724"/>
    </contour>
  </outline>
</glyph>
<glyph name="guillemotright" format="1">
  <advance width="1306"/>
  <unicode hex="00BB"/>
  <outline>
    <contour>
      <point x="663" y="399" type="line"/>
      <point x="237" y="-5" type="line"/>
      <point x="46" y="219" type="line"/>
      <point x="361" y="534" type="line"/>
      <point x="46" y="849" type="line"/>
      <point x="237" y="1073" type="line"/>
      <point x="663" y="669" type="line"/>
    </contour>
    <contour>
      <point x="1273" y="399" type="line"/>
      <point x="847" y="-5" type="line"/>
      <point x="656" y="219" type="line"/>
      <point x="971" y="534" type="line"/>
      <point x="656" y="849" type="line"/>
      <point x="847" y="1073" type="line"/>
      <point x="1273" y="669" type="line"/>
    </contour>
  </outline>
</glyph>
<glyph name="onehalf" format="1">
  <advance width="1784"/>
  <unicode hex="00BD"/>
  <outline>
    <contour>
      <point x="510" y="818" type="line"/>
      <point x="510" y="1008" type="line"/>
      <point x="454" y="1008" type="line"/>
      <point x="450" y="1623" type="line"/>
      <point x="63" y="1525" type="line"/>
      <point x="63" y="1374" type="line"/>
      <point x="159" y="1375" type="line"/>
      <point x="159" y="1008" type="line"/>
      <point x="106" y="1008" type="line"/>
      <point x="107" y="818" type="line"/>
    </contour>
    <contour>
      <point x="705" y="0" type="line"/>
      <point x="1207" y="1623" type="line"/>
      <point x="843" y="1623" type="line"/>
      <point x="352" y="0" type="line"/>
    </contour>
    <contour>
      <point x="1730" y="-1" type="line"/>
      <point x="1730" y="283" type="line"/>
      <point x="1626" y="283" type="line"/>
      <point x="1626" y="232"/>
      <point x="1557" y="196"/>
      <point x="1496" y="194" type="qcurve"/>
      <point x="1399" y="194" type="line"/>
      <point x="1564" y="318"/>
      <point x="1615" y="384" type="qcurve"/>
      <point x="1679" y="465"/>
      <point x="1679" y="558" type="qcurve"/>
      <point x="1679" y="684"/>
      <point x="1501" y="829"/>
      <point x="1365" y="834" type="qcurve"/>
      <point x="1282" y="837"/>
      <point x="1126" y="780"/>
      <point x="1019" y="654"/>
      <point x="1019" y="571" type="qcurve"/>
      <point x="1016" y="434"/>
      <point x="1108" y="352" type="qcurve"/>
      <point x="1245" y="457" type="line"/>
      <point x="1207" y="492"/>
      <point x="1207" y="534" type="qcurve"/>
      <point x="1207" y="571"/>
      <point x="1250" y="620"/>
      <point x="1289" y="620" type="qcurve"/>
      <point x="1320" y="620"/>
      <point x="1368" y="562"/>
      <point x="1371" y="516" type="qcurve"/>
      <point x="1371" y="467"/>
      <point x="1329" y="380"/>
      <point x="1282" y="331"/>
      <point x="1236" y="292" type="qcurve"/>
      <point x="1158" y="227"/>
      <point x="1042" y="181" type="qcurve"/>
      <point x="1042" y="-1" type="line"/>
    </contour>
  </outline>
</glyph>
<glyph name="Atilde" format="1">
  <advance width="1643"/>
  <unicode hex="00C3"/>
  <outline>
    <contour>
      <point x="1185" y="1623" type="line"/>
      <point x="191" y="1623" type="line"/>
      <point x="191" y="1270" type="line"/>
      <point x="403" y="1270" type="line"/>
      <point x="231" y="591" type="line"/>
      <point x="204" y="486"/>
      <point x="193" y="462" type="qcurve"/>
      <point x="160" y="386"/>
      <point x="82" y="367" type="qcurve"/>
      <point x="48" y="359"/>
      <point x="4" y="359" type="qcurve"/>
      <point x="4" y="0" type="line"/>
      <point x="682" y="0" type="line"/>
      <point x="682" y="359" type="line"/>
      <point x="598" y="359" type="line"/>
      <point x="577" y="359"/>
      <point x="555" y="431"/>
      <point x="555" y="459" type="qcurve"/>
      <point x="556" y="480"/>
      <point x="558" y="502"/>
      <point x="572" y="523"/>
      <point x="585" y="523" type="qcurve"/>
      <point x="860" y="523" type="line"/>
      <point x="927" y="523"/>
      <point x="927" y="359" type="qcurve"/>
      <point x="807" y="359" type="line"/>
      <point x="808" y="0" type="line"/>
      <point x="1634" y="0" type="line"/>
      <point x="1634" y="359" type="line"/>
      <point x="1548" y="359" type="line"/>
      <point x="1533" y="359"/>
      <point x="1511" y="384"/>
      <point x="1500" y="416"/>
      <point x="1492" y="447" type="qcurve"/>
    </contour>
    <contour>
      <point x="612" y="773" type="line"/>
      <point x="724" y="1281" type="line"/>
      <point x="841" y="773" type="line"/>
    </contour>
    <contour>
      <point x="967" y="2085" type="qcurve"/>
      <point x="1011" y="2085"/>
      <point x="1083" y="2047"/>
      <point x="1135" y="1978"/>
      <point x="1174" y="1910"/>
      <point x="1221" y="1820"/>
      <point x="1239" y="1794" type="qcurve"/>
      <point x="1126" y="1720" type="line"/>
      <point x="1053" y="1790"/>
      <point x="998" y="1828"/>
      <point x="979" y="1828" type="qcurve"/>
      <point x="934" y="1828"/>
      <point x="810" y="1768"/>
      <point x="677" y="1707"/>
      <point x="622" y="1707" type="qcurve"/>
      <point x="577" y="1707"/>
      <point x="505" y="1744"/>
      <point x="452" y="1813"/>
      <point x="414" y="1880"/>
      <point x="366" y="1971"/>
      <point x="348" y="1997" type="qcurve"/>
      <point x="462" y="2072" type="line"/>
      <point x="538" y="1999"/>
      <point x="594" y="1960"/>
      <point x="612" y="1960" type="qcurve"/>
      <point x="648" y="1960"/>
      <point x="742" y="1999"/>
      <point x="820" y="2046"/>
      <point x="922" y="2085"/>
    </contour>
  </outline>
</glyph>
<glyph name="AE" format="1">
  <advance width="2138"/>
  <unicode hex="00C6"/>
  <outline>
    <contour>
      <point x="2015" y="970" type="line"/>
      <point x="2015" y="1623" type="line"/>
      <point x="445" y="1623" type="line"/>
      <point x="374" y="1274" type="line"/>
      <point x="586" y="1274" type="line"/>
      <point x="264" y="608" type="line"/>
      <point x="259" y="597"/>
      <point x="232" y="534"/>
      <point x="221" y="511"/>
      <point x="194" y="459"/>
      <point x="176" y="437"/>
      <point x="144" y="399"/>
      <point x="112" y="382"/>
      <point x="70" y="362"/>
      <point x="20" y="354"/>
      <point x="-10" y="354" type="qcurve"/>
      <point x="-10" y="-1" type="line"/>
      <point x="671" y="0" type="line"/>
      <point x="671" y="376" type="line"/>
      <point x="587" y="376" type="line"/>
      <point x="566" y="376"/>
      <point x="557" y="459"/>
      <point x="563" y="476" type="qcurve"/>
      <point x="568" y="497"/>
      <point x="574" y="519"/>
      <point x="592" y="540"/>
      <point x="605" y="540" type="qcurve"/>
      <point x="880" y="540" type="line"/>
      <point x="948" y="540"/>
      <point x="916" y="376" type="qcurve"/>
      <point x="796" y="376" type="line"/>
      <point x="797" y="0" type="line"/>
      <point x="2026" y="0" type="line"/>
      <point x="2026" y="687" type="line"/>
      <point x="1753" y="687" type="line"/>
      <point x="1690" y="420" type="line"/>
      <point x="1677" y="350" type="line"/>
      <point x="1458" y="350" type="line"/>
      <point x="1458" y="636" type="line"/>
      <point x="1663" y="636" type="line"/>
      <point x="1663" y="988" type="line"/>
      <point x="1458" y="988" type="line"/>
      <point x="1458" y="1271" type="line"/>
      <point x="1671" y="1271" type="line"/>
      <point x="1747" y="969" type="line"/>
    </contour>
    <contour>
      <point x="669" y="771" type="line"/>
      <point x="909" y="1292" type="line"/>
      <point x="908" y="771" type="line"/>
    </contour>
  </outline>
</glyph>
<glyph name="Egrave" format="1">
  <advance width="1490"/>
  <unicode hex="00C8"/>
  <outline>
    <contour>
      <point x="1367" y="969" type="line"/>
      <point x="1367" y="1623" type="line"/>
      <point x="99" y="1623" type="line"/>
      <point x="99" y="1270" type="line"/>
      <point x="257" y="1270" type="line"/>
      <point x="257" y="359" type="line"/>
      <point x="99" y="359" type="line"/>
      <point x="99" y="0" type="line"/>
      <point x="1378" y="0" type="line"/>
      <point x="1378" y="687" type="line"/>
      <point x="1105" y="687" type="line"/>
      <point x="1042" y="420" type="line"/>
      <point x="1029" y="359" type="line"/>
      <point x="810" y="359" type="line"/>
      <point x="810" y="636" type="line"/>
      <point x="1015" y="636" type="line"/>
      <point x="1015" y="988" type="line"/>
      <point x="810" y="988" type="line"/>
      <point x="810" y="1270" type="line"/>
      <point x="1023" y="1270" type="line"/>
      <point x="1099" y="968" type="line"/>
    </contour>
    <contour>
      <point x="591" y="2270" type="line"/>
      <point x="1065" y="1833" type="line"/>
      <point x="961" y="1692" type="line"/>
      <point x="407" y="2005" type="line"/>
    </contour>
  </outline>
</glyph>
<glyph name="Edieresis" format="1">
  <advance width="1490"/>
  <unicode hex="00CB"/>
  <outline>
    <contour>
      <point x="1367" y="969" type="line"/>
      <point x="1367" y="1623" type="line"/>
      <point x="99" y="1623" type="line"/>
      <point x="99" y="1270" type="line"/>
      <point x="257" y="1270" type="line"/>
      <point x="257" y="359" type="line"/>
      <point x="99" y="359" type="line"/>
      <point x="99" y="0" type="line"/>
      <point x="1378" y="0" type="line"/>
      <point x="1378" y="687" type="line"/>
      <point x="1105" y="687" type="line"/>
      <point x="1042" y="420" type="line"/>
      <point x="1029" y="359" type="line"/>
      <point x="810" y="359" type="line"/>
      <point x="810" y="636" type="line"/>
      <point x="1015" y="636" type="line"/>
      <point x="1015" y="988" type="line"/>
      <point x="810" y="988" type="line"/>
      <point x="810" y="1270" type="line"/>
      <point x="1023" y="1270" type="line"/>
      <point x="1099" y="968" type="line"/>
    </contour>
    <contour>
      <point x="654" y="1904" type="qcurve"/>
      <point x="654" y="1796"/>
      <point x="521" y="1674"/>
      <point x="430" y="1674" type="qcurve"/>
      <point x="337" y="1674"/>
      <point x="202" y="1797"/>
      <point x="202" y="1907" type="qcurve"/>
      <point x="202" y="2014"/>
      <point x="336" y="2134"/>
      <point x="520" y="2134"/>
      <point x="654" y="2013"/>
    </contour>
    <contour>
      <point x="1271" y="1904" type="qcurve"/>
      <point x="1271" y="1796"/>
      <point x="1138" y="1674"/>
      <point x="1047" y="1674" type="qcurve"/>
      <point x="954" y="1674"/>
      <point x="819" y="1797"/>
      <point x="819" y="1907" type="qcurve"/>
      <point x="819" y="2014"/>
      <point x="953" y="2134"/>
      <point x="1137" y="2134"/>
      <point x="1271" y="2013"/>
    </contour>
  </outline>
</glyph>
<glyph name="Icircumflex" format="1">
  <advance width="1076"/>
  <unicode hex="00CE"/>
  <outline>
    <contour>
      <point x="972" y="1623" type="line"/>
      <point x="108" y="1623" type="line"/>
      <point x="108" y="1270" type="line"/>
      <point x="251" y="1270" type="line"/>
      <point x="251" y="359" type="line"/>
      <point x="104" y="359" type="line"/>
      <point x="104" y="0" type="line"/>
      <point x="966" y="0" type="line"/>
      <point x="966" y="359" type="line"/>
      <point x="825" y="359" type="line"/>
      <point x="825" y="1270" type="line"/>
      <point x="972" y="1270" type="line"/>
    </contour>
    <contour>
      <point x="404" y="2163" type="line"/>
      <point x="131" y="1786" type="line"/>
      <point x="285" y="1685" type="line"/>
      <point x="540" y="1930" type="line"/>
      <point x="795" y="1685" type="line"/>
      <point x="949" y="1786" type="line"/>
      <point x="675" y="2162" type="line"/>
    </contour>
  </outline>
</glyph>
<glyph name="Ntilde" format="1">
  <advance width="1873"/>
  <unicode hex="00D1"/>
  <outline>
    <contour>
      <point x="1814" y="1622" type="line"/>
      <point x="1177" y="1623" type="line"/>
      <point x="1177" y="1270" type="line"/>
      <point x="1216" y="1271"/>
      <point x="1274" y="1261"/>
      <point x="1307" y="1234"/>
      <point x="1327" y="1209"/>
      <point x="1334" y="1164"/>
      <point x="1335" y="1140"/>
      <point x="1335" y="1116" type="qcurve"/>
      <point x="1335" y="647" type="line"/>
      <point x="839" y="1623" type="line"/>
      <point x="104" y="1623" type="line"/>
      <point x="104" y="1272" type="line"/>
      <point x="261" y="1272" type="line"/>
      <point x="261" y="550" type="line"/>
      <point x="261" y="512"/>
      <point x="257" y="468"/>
      <point x="240" y="411"/>
      <point x="207" y="381"/>
      <point x="144" y="359"/>
      <point x="98" y="359" type="qcurve"/>
      <point x="98" y="0" type="line"/>
      <point x="735" y="0" type="line"/>
      <point x="735" y="359" type="line"/>
      <point x="650" y="359"/>
      <point x="577" y="425"/>
      <point x="577" y="507" type="qcurve"/>
      <point x="577" y="908" type="line"/>
      <point x="1050" y="0" type="line"/>
      <point x="1656" y="0" type="line"/>
      <point x="1656" y="1118" type="line"/>
      <point x="1656" y="1192"/>
      <point x="1729" y="1270"/>
      <point x="1814" y="1270" type="qcurve"/>
    </contour>
    <contour>
      <point x="1082" y="2085" type="qcurve"/>
      <point x="1126" y="2085"/>
      <point x="1198" y="2047"/>
      <point x="1250" y="1978"/>
      <point x="1289" y="1910"/>
      <point x="1336" y="1820"/>
      <point x="1354" y="1794" type="qcurve"/>
      <point x="1241" y="1720" type="line"/>
      <point x="1168" y="1790"/>
      <point x="1113" y="1828"/>
      <point x="1094" y="1828" type="qcurve"/>
      <point x="1049" y="1828"/>
      <point x="925" y="1768"/>
      <point x="792" y="1707"/>
      <point x="737" y="1707" type="qcurve"/>
      <point x="692" y="1707"/>
      <point x="620" y="1744"/>
      <point x="567" y="1813"/>
      <point x="529" y="1880"/>
      <point x="481" y="1971"/>
      <point x="463" y="1997" type="qcurve"/>
      <point x="577" y="2072" type="line"/>
      <point x="653" y="1999"/>
      <point x="709" y="1960"/>
      <point x="727" y="1960" type="qcurve"/>
      <point x="763" y="1960"/>
      <point x="857" y="1999"/>
      <point x="935" y="2046"/>
      <point x="1037" y="2085"/>
    </contour>
  </outline>
</glyph>
<glyph name="Otilde" format="1">
  <advance width="1744"/>
  <unicode hex="00D5"/>
  <outline>
    <contour>
      <point x="1692" y="808" type="qcurve"/>
      <point x="1692" y="573"/>
      <point x="1477" y="189"/>
      <point x="1101" y="-29"/>
      <point x="643" y="-29"/>
      <point x="267" y="189"/>
      <point x="52" y="573"/>
      <point x="52" y="808" type="qcurve"/>
      <point x="52" y="1066"/>
      <point x="267" y="1453"/>
      <point x="636" y="1653"/>
      <point x="1108" y="1653"/>
      <point x="1477" y="1453"/>
      <point x="1692" y="1066"/>
    </contour>
    <contour>
      <point x="872" y="319" type="qcurve"/>
      <point x="911" y="319"/>
      <point x="973" y="345"/>
      <point x="1016" y="391"/>
      <point x="1048" y="453"/>
      <point x="1066" y="526"/>
      <point x="1078" y="604"/>
      <point x="1081" y="683"/>
      <point x="1083" y="759"/>
      <point x="1082" y="793" type="qcurve"/>
      <point x="1082" y="813"/>
      <point x="1082" y="823" type="qcurve"/>
      <point x="1082" y="834"/>
      <point x="1082" y="858" type="qcurve"/>
      <point x="1081" y="894"/>
      <point x="1083" y="974"/>
      <point x="1074" y="1059"/>
      <point x="1061" y="1139"/>
      <point x="1029" y="1211"/>
      <point x="986" y="1265"/>
      <point x="916" y="1296"/>
      <point x="872" y="1296" type="qcurve"/>
      <point x="833" y="1296"/>
      <point x="770" y="1272"/>
      <point x="728" y="1229"/>
      <point x="695" y="1172"/>
      <point x="678" y="1105"/>
      <point x="665" y="1032"/>
      <point x="663" y="959"/>
      <point x="660" y="889"/>
      <point x="662" y="858" type="qcurve"/>
      <point x="662" y="834"/>
      <point x="662" y="823" type="qcurve"/>
      <point x="662" y="813"/>
      <point x="662" y="793" type="qcurve"/>
      <point x="663" y="763"/>
      <point x="661" y="697"/>
      <point x="666" y="626"/>
      <point x="672" y="556"/>
      <point x="687" y="488"/>
      <point x="707" y="428"/>
      <point x="739" y="377"/>
      <point x="780" y="340"/>
      <point x="838" y="319"/>
    </contour>
    <contour>
      <point x="1044" y="2085" type="qcurve"/>
      <point x="1088" y="2085"/>
      <point x="1160" y="2047"/>
      <point x="1212" y="1978"/>
      <point x="1251" y="1910"/>
      <point x="1298" y="1820"/>
      <point x="1316" y="1794" type="qcurve"/>
      <point x="1203" y="1720" type="line"/>
      <point x="1130" y="1790"/>
      <point x="1075" y="1828"/>
      <point x="1056" y="1828" type="qcurve"/>
      <point x="1011" y="1828"/>
      <point x="887" y="1768"/>
      <point x="754" y="1707"/>
      <point x="699" y="1707" type="qcurve"/>
      <point x="654" y="1707"/>
      <point x="582" y="1744"/>
      <point x="529" y="1813"/>
      <point x="491" y="1880"/>
      <point x="443" y="1971"/>
      <point x="425" y="1997" type="qcurve"/>
      <point x="539" y="2072" type="line"/>
      <point x="615" y="1999"/>
      <point x="671" y="1960"/>
      <point x="689" y="1960" type="qcurve"/>
      <point x="725" y="1960"/>
      <point x="819" y="1999"/>
      <point x="897" y="2046"/>
      <point x="999" y="2085"/>
    </contour>
  </outline>
</glyph>
<glyph name="Ucircumflex" format="1">
  <advance width="1683"/>
  <unicode hex="00DB"/>
  <outline>
    <contour>
      <point x="1485" y="1270" type="line"/>
      <point x="1639" y="1270" type="line"/>
      <point x="1639" y="1622" type="line"/>
      <point x="985" y="1622" type="line"/>
      <point x="985" y="1270" type="line"/>
      <point x="1149" y="1270" type="line"/>
      <point x="1149" y="536" type="line"/>
      <point x="1149" y="448"/>
      <point x="1045" y="346"/>
      <point x="953" y="346" type="qcurve"/>
      <point x="901" y="346"/>
      <point x="824" y="390"/>
      <point x="783" y="465"/>
      <point x="764" y="551"/>
      <point x="764" y="600" type="qcurve"/>
      <point x="764" y="1270" type="line"/>
      <point x="912" y="1270" type="line"/>
      <point x="912" y="1622" type="line"/>
      <point x="43" y="1622" type="line"/>
      <point x="43" y="1270" type="line"/>
      <point x="204" y="1270" type="line"/>
      <point x="204" y="704" type="line"/>
      <point x="204" y="616"/>
      <point x="219" y="466"/>
      <point x="258" y="314"/>
      <point x="320" y="192"/>
      <point x="418" y="84"/>
      <point x="547" y="12"/>
      <point x="725" y="-29"/>
      <point x="834" y="-29" type="qcurve"/>
      <point x="1005" y="-29"/>
      <point x="1301" y="107"/>
      <point x="1485" y="362"/>
      <point x="1485" y="520" type="qcurve"/>
    </contour>
    <contour>
      <point x="705" y="2163" type="line"/>
      <point x="432" y="1786" type="line"/>
      <point x="586" y="1685" type="line"/>
      <point x="841" y="1930" type="line"/>
      <point x="1096" y="1685" type="line"/>
      <point x="1250" y="1786" type="line"/>
      <point x="976" y="2162" type="line"/>
    </contour>
  </outline>
</glyph>
<glyph name="Thorn" format="1">
  <advance width="1638"/>
  <unicode hex="00DE"/>
  <outline>
    <contour>
      <point x="90" y="0" type="line"/>
      <point x="951" y="0" type="line"/>
      <point x="951" y="363" type="line"/>
      <point x="805" y="363" type="line"/>
      <point x="805" y="569" type="line"/>
      <point x="884" y="559"/>
      <point x="955" y="559" type="qcurve"/>
      <point x="1107" y="559"/>
      <point x="1344" y="616"/>
      <point x="1521" y="735"/>
      <point x="1615" y="932"/>
      <point x="1615" y="1066" type="qcurve"/>
      <point x="1615" y="1139"/>
      <point x="1584" y="1261"/>
      <point x="1533" y="1352"/>
      <point x="1451" y="1425"/>
      <point x="1364" y="1474"/>
      <point x="1245" y="1510"/>
      <point x="1136" y="1530"/>
      <point x="994" y="1541"/>
      <point x="878" y="1543"/>
      <point x="804" y="1543" type="qcurve"/>
      <point x="805" y="1843" type="line"/>
      <point x="95" y="1843" type="line"/>
      <point x="95" y="1488" type="line"/>
      <point x="246" y="1488" type="line"/>
      <point x="246" y="363" type="line"/>
      <point x="90" y="363" type="line"/>
    </contour>
    <contour>
      <point x="805" y="1208" type="line"/>
      <point x="909" y="1208" type="line"/>
      <point x="986" y="1208"/>
      <point x="1093" y="1132"/>
      <point x="1093" y="1056" type="qcurve"/>
      <point x="1093" y="970"/>
      <point x="976" y="895"/>
      <point x="866" y="895" type="qcurve"/>
      <point x="805" y="895" type="line"/>
    </contour>
  </outline>
</glyph>
<glyph name="germandbls" format="1">
  <advance width="1633"/>
  <unicode hex="00DF"/>
  <outline>
    <contour>
      <point x="803" y="1623" type="qcurve"/>
      <point x="683" y="1623"/>
      <point x="494" y="1591"/>
      <point x="332" y="1515"/>
      <point x="225" y="1394"/>
      <point x="166" y="1212"/>
      <point x="166" y="1092" type="qcurve"/>
      <point x="166" y="369" type="line"/>
      <point x="-6" y="369" type="line"/>
      <point x="-6" y="0" type="line"/>
      <point x="845" y="0" type="line"/>
      <point x="845" y="350" type="line"/>
      <point x="820" y="349"/>
      <point x="694" y="349" type="qcurve"/>
      <point x="693" y="1131" type="line"/>
      <point x="693" y="1206"/>
      <point x="773" y="1275"/>
      <point x="834" y="1275" type="qcurve"/>
      <point x="908" y="1275"/>
      <point x="980" y="1192"/>
      <point x="980" y="1124" type="qcurve"/>
      <point x="980" y="1045"/>
      <point x="853" y="901"/>
      <point x="765" y="901" type="qcurve"/>
      <point x="768" y="750" type="line"/>
      <point x="943" y="750"/>
      <point x="1125" y="625"/>
      <point x="1125" y="533" type="qcurve"/>
      <point x="1125" y="431"/>
      <point x="980" y="349" type="qcurve"/>
      <point x="981" y="-18" type="line"/>
      <point x="1135" y="-18"/>
      <point x="1379" y="56"/>
      <point x="1530" y="181"/>
      <point x="1609" y="340"/>
      <point x="1609" y="429" type="qcurve"/>
      <point x="1609" y="577"/>
      <point x="1398" y="837"/>
      <point x="1207" y="898" type="qcurve"/>
      <point x="1313" y="958"/>
      <point x="1433" y="1140"/>
      <point x="1433" y="1236" type="qcurve"/>
      <point x="1433" y="1296"/>
      <point x="1388" y="1407"/>
      <point x="1290" y="1507"/>
      <point x="1145" y="1580"/>
      <point x="932" y="1623"/>
    </contour>
  </outline>
</glyph>
<glyph name="aacute" format="1">
  <advance width="1294"/>
  <unicode hex="00E1"/>
  <outline>
    <contour>
      <point x="30" y="308" type="qcurve"/>
      <point x="30" y="159"/>
      <point x="257" y="-18"/>
      <point x="419" y="-18" type="qcurve"/>
      <point x="501" y="-18"/>
      <point x="675" y="54"/>
      <point x="725" y="119" type="qcurve"/>
      <point x="775" y="0" type="line"/>
      <point x="1247" y="0" type="line"/>
      <point x="1247" y="305" type="line"/>
      <point x="1171" y="305" type="line"/>
      <point x="1171" y="750" type="line"/>
      <point x="1171" y="819"/>
      <point x="1120" y="930"/>
      <point x="1045" y="1000"/>
      <point x="932" y="1051"/>
      <point x="835" y="1076"/>
      <point x="710" y="1090"/>
      <point x="644" y="1092"/>
      <point x="603" y="1092" type="qcurve"/>
      <point x="496" y="1092"/>
      <point x="254" y="1057"/>
      <point x="187" y="1040" type="qcurve"/>
      <point x="120" y="1022" type="line"/>
      <point x="120" y="708" type="line"/>
      <point x="295" y="708" type="line"/>
      <point x="367" y="803"/>
      <point x="510" y="803" type="qcurve"/>
      <point x="721" y="803"/>
      <point x="721" y="637" type="qcurve"/>
      <point x="721" y="592" type="line"/>
      <point x="611" y="630"/>
      <point x="465" y="630" type="qcurve"/>
      <point x="382" y="630"/>
      <point x="229" y="589"/>
      <point x="105" y="511"/>
      <point x="30" y="385"/>
    </contour>
    <contour>
      <point x="520" y="326" type="qcurve"/>
      <point x="520" y="369"/>
      <point x="582" y="438"/>
      <point x="625" y="438" type="qcurve"/>
      <point x="647" y="438"/>
      <point x="696" y="428"/>
      <point x="710" y="422" type="qcurve"/>
      <point x="724" y="417" type="line"/>
      <point x="724" y="270" type="line"/>
      <point x="720" y="265"/>
      <point x="704" y="250"/>
      <point x="648" y="224"/>
      <point x="616" y="224" type="qcurve"/>
      <point x="572" y="224"/>
      <point x="520" y="281"/>
    </contour>
    <contour>
      <point x="908" y="1708" type="line"/>
      <point x="434" y="1271" type="line"/>
      <point x="538" y="1130" type="line"/>
      <point x="1092" y="1443" type="line"/>
    </contour>
  </outline>
</glyph>
<glyph name="atilde" format="1">
  <advance width="1294"/>
  <unicode hex="00E3"/>
  <outline>
    <contour>
      <point x="30" y="308" type="qcurve"/>
      <point x="30" y="159"/>
      <point x="257" y="-18"/>
      <point x="419" y="-18" type="qcurve"/>
      <point x="501" y="-18"/>
      <point x="675" y="54"/>
      <point x="725" y="119" type="qcurve"/>
      <point x="775" y="0" type="line"/>
      <point x="1247" y="0" type="line"/>
      <point x="1247" y="305" type="line"/>
      <point x="1171" y="305" type="line"/>
      <point x="1171" y="750" type="line"/>
      <point x="1171" y="819"/>
      <point x="1120" y="930"/>
      <point x="1045" y="1000"/>
      <point x="932" y="1051"/>
      <point x="835" y="1076"/>
      <point x="710" y="1090"/>
      <point x="644" y="1092"/>
      <point x="603" y="1092" type="qcurve"/>
      <point x="496" y="1092"/>
      <point x="254" y="1057"/>
      <point x="187" y="1040" type="qcurve"/>
      <point x="120" y="1022" type="line"/>
      <point x="120" y="708" type="line"/>
      <point x="295" y="708" type="line"/>
      <point x="367" y="803"/>
      <point x="510" y="803" type="qcurve"/>
      <point x="721" y="803"/>
      <point x="721" y="637" type="qcurve"/>
      <point x="721" y="592" type="line"/>
      <point x="611" y="630"/>
      <point x="465" y="630" type="qcurve"/>
      <point x="382" y="630"/>
      <point x="229" y="589"/>
      <point x="105" y="511"/>
      <point x="30" y="385"/>
    </contour>
    <contour>
      <point x="520" y="326" type="qcurve"/>
      <point x="520" y="369"/>
      <point x="582" y="438"/>
      <point x="625" y="438" type="qcurve"/>
      <point x="647" y="438"/>
      <point x="696" y="428"/>
      <point x="710" y="422" type="qcurve"/>
      <point x="724" y="417" type="line"/>
      <point x="724" y="270" type="line"/>
      <point x="720" y="265"/>
      <point x="704" y="250"/>
      <point x="648" y="224"/>
      <point x="616" y="224" type="qcurve"/>
      <point x="572" y="224"/>
      <point x="520" y="281"/>
    </contour>
    <contour>
      <point x="789" y="1523" type="qcurve"/>
      <point x="833" y="1523"/>
      <point x="905" y="1485"/>
      <point x="957" y="1416"/>
      <point x="996" y="1348"/>
      <point x="1043" y="1258"/>
      <point x="1061" y="1232" type="qcurve"/>
      <point x="948" y="1158" type="line"/>
      <point x="875" y="1228"/>
      <point x="820" y="1266"/>
      <point x="801" y="1266" type="qcurve"/>
      <point x="756" y="1266"/>
      <point x="632" y="1206"/>
      <point x="499" y="1145"/>
      <point x="444" y="1145" type="qcurve"/>
      <point x="399" y="1145"/>
      <point x="327" y="1182"/>
      <point x="274" y="1251"/>
      <point x="236" y="1318"/>
      <point x="188" y="1409"/>
      <point x="170" y="1435" type="qcurve"/>
      <point x="284" y="1510" type="line"/>
      <point x="360" y="1437"/>
      <point x="416" y="1398"/>
      <point x="434" y="1398" type="qcurve"/>
      <point x="470" y="1398"/>
      <point x="564" y="1437"/>
      <point x="642" y="1484"/>
      <point x="744" y="1523"/>
    </contour>
  </outline>
</glyph>
<glyph name="adieresis" format="1">
  <advance width="1294"/>
  <unicode hex="00E4"/>
  <outline>
    <contour>
      <point x="30" y="308" type="qcurve"/>
      <point x="30" y="159"/>
      <point x="257" y="-18"/>
      <point x="419" y="-18" type="qcurve"/>
      <point x="501" y="-18"/>
      <point x="675" y="54"/>
      <point x="725" y="119" type="qcurve"/>
      <point x="775" y="0" type="line"/>
      <point x="1247" y="0" type="line"/>
      <point x="1247" y="305" type="line"/>
      <point x="1171" y="305" type="line"/>
      <point x="1171" y="750" type="line"/>
      <point x="1171" y="819"/>
      <point x="1120" y="930"/>
      <point x="1045" y="1000"/>
      <point x="932" y="1051"/>
      <point x="835" y="1076"/>
      <point x="710" y="1090"/>
      <point x="644" y="1092"/>
      <point x="603" y="1092" type="qcurve"/>
      <point x="496" y="1092"/>
      <point x="254" y="1057"/>
      <point x="187" y="1040" type="qcurve"/>
      <point x="120" y="1022" type="line"/>
      <point x="120" y="708" type="line"/>
      <point x="295" y="708" type="line"/>
      <point x="367" y="803"/>
      <point x="510" y="803" type="qcurve"/>
      <point x="721" y="803"/>
      <point x="721" y="637" type="qcurve"/>
      <point x="721" y="592" type="line"/>
      <point x="611" y="630"/>
      <point x="465" y="630" type="qcurve"/>
      <point x="382" y="630"/>
      <point x="229" y="589"/>
      <point x="105" y="511"/>
      <point x="30" y="385"/>
    </contour>
    <contour>
      <point x="520" y="326" type="qcurve"/>
      <point x="520" y="369"/>
      <point x="582" y="438"/>
      <point x="625" y="438" type="qcurve"/>
      <point x="647" y="438"/>
      <point x="696" y="428"/>
      <point x="710" y="422" type="qcurve"/>
      <point x="724" y="417" type="line"/>
      <point x="724" y="270" type="line"/>
      <point x="720" y="265"/>
      <point x="704" y="250"/>
      <point x="648" y="224"/>
      <point x="616" y="224" type="qcurve"/>
      <point x="572" y="224"/>
      <point x="520" y="281"/>
    </contour>
    <contour>
      <point x="559" y="1342" type="qcurve"/>
      <point x="559" y="1234"/>
      <point x="426" y="1112"/>
      <point x="335" y="1112" type="qcurve"/>
      <point x="242" y="1112"/>
      <point x="107" y="1235"/>
      <point x="107" y="1345" type="qcurve"/>
      <point x="107" y="1452"/>
      <point x="241" y="1572"/>
      <point x="425" y="1572"/>
      <point x="559" y="1451"/>
    </contour>
    <contour>
      <point x="1176" y="1342" type="qcurve"/>
      <point x="1176" y="1234"/>
      <point x="1043" y="1112"/>
      <point x="952" y="1112" type="qcurve"/>
      <point x="859" y="1112"/>
      <point x="724" y="1235"/>
      <point x="724" y="1345" type="qcurve"/>
      <point x="724" y="1452"/>
      <point x="858" y="1572"/>
      <point x="1042" y="1572"/>
      <point x="1176" y="1451"/>
    </contour>
  </outline>
</glyph>
<glyph name="aring" format="1">
  <advance width="1294"/>
  <unicode hex="00E5"/>
  <outline>
    <contour>
      <point x="30" y="308" type="qcurve"/>
      <point x="30" y="159"/>
      <point x="257" y="-18"/>
      <point x="419" y="-18" type="qcurve"/>
      <point x="501" y="-18"/>
      <point x="675" y="54"/>
      <point x="725" y="119" type="qcurve"/>
      <point x="775" y="0" type="line"/>
      <point x="1247" y="0" type="line"/>
      <point x="1247" y="305" type="line"/>
      <point x="1171" y="305" type="line"/>
      <point x="1171" y="750" type="line"/>
      <point x="1171" y="819"/>
      <point x="1120" y="930"/>
      <point x="1045" y="1000"/>
      <point x="932" y="1051"/>
      <point x="835" y="1076"/>
      <point x="710" y="1090"/>
      <point x="644" y="1092"/>
      <point x="603" y="1092" type="qcurve"/>
      <point x="496" y="1092"/>
      <point x="254" y="1057"/>
      <point x="187" y="1040" type="qcurve"/>
      <point x="120" y="1022" type="line"/>
      <point x="120" y="708" type="line"/>
      <point x="295" y="708" type="line"/>
      <point x="367" y="803"/>
      <point x="510" y="803" type="qcurve"/>
      <point x="721" y="803"/>
      <point x="721" y="637" type="qcurve"/>
      <point x="721" y="592" type="line"/>
      <point x="611" y="630"/>
      <point x="465" y="630" type="qcurve"/>
      <point x="382" y="630"/>
      <point x="229" y="589"/>
      <point x="105" y="511"/>
      <point x="30" y="385"/>
    </contour>
    <contour>
      <point x="520" y="326" type="qcurve"/>
      <point x="520" y="369"/>
      <point x="582" y="438"/>
      <point x="625" y="438" type="qcurve"/>
      <point x="647" y="438"/>
      <point x="696" y="428"/>
      <point x="710" y="422" type="qcurve"/>
      <point x="724" y="417" type="line"/>
      <point x="724" y="270" type="line"/>
      <point x="720" y="265"/>
      <point x="704" y="250"/>
      <point x="648" y="224"/>
      <point x="616" y="224" type="qcurve"/>
      <point x="572" y="224"/>
      <point x="520" y="281"/>
    </contour>
    <contour>
      <point x="637" y="1240" type="qcurve"/>
      <point x="562" y="1240"/>
      <point x="476" y="1328"/>
      <point x="476" y="1388" type="qcurve"/>
      <point x="476" y="1447"/>
      <point x="561" y="1533"/>
      <point x="637" y="1533" type="qcurve"/>
      <point x="715" y="1533"/>
      <point x="802" y="1447"/>
      <point x="802" y="1388" type="qcurve"/>
      <point x="802" y="1328"/>
      <point x="714" y="1240"/>
    </contour>
    <contour>
      <point x="637" y="1138" type="qcurve"/>
      <point x="768" y="1138"/>
      <point x="917" y="1288"/>
      <point x="917" y="1389" type="qcurve"/>
      <point x="917" y="1489"/>
      <point x="770" y="1633"/>
      <point x="637" y="1633" type="qcurve"/>
      <point x="508" y="1633"/>
      <point x="366" y="1488"/>
      <point x="366" y="1389" type="qcurve"/>
      <point x="366" y="1288"/>
      <point x="510" y="1138"/>
    </contour>
  </outline>
</glyph>
<glyph name="icircumflex" format="1">
  <advance width="813"/>
  <unicode hex="00EE"/>
  <outline>
    <contour>
      <point x="279" y="1601" type="line"/>
      <point x="6" y="1224" type="line"/>
      <point x="160" y="1123" type="line"/>
      <point x="415" y="1368" type="line"/>
      <point x="670" y="1123" type="line"/>
      <point x="824" y="1224" type="line"/>
      <point x="550" y="1600" type="line"/>
    </contour>
    <contour>
      <point x="661" y="1072" type="line"/>
      <point x="91" y="1072" type="line"/>
      <point x="91" y="747" type="line"/>
      <point x="180" y="747" type="line"/>
      <point x="180" y="299" type="line"/>
      <point x="98" y="299" type="line"/>
      <point x="98" y="0" type="line"/>
      <point x="745" y="0" type="line"/>
      <point x="745" y="299" type="line"/>
      <point x="661" y="299" type="line"/>
    </contour>
  </outline>
</glyph>
<glyph name="eth" format="1">
  <advance width="1337"/>
  <unicode hex="00F0"/>
  <outline>
    <contour>
      <point x="1206" y="1585" type="line"/>
      <point x="1269" y="1428" type="line"/>
      <point x="1112" y="1365" type="line"/>
      <point x="1264" y="1142"/>
      <point x="1283" y="751" type="qcurve"/>
      <point x="1284" y="731"/>
      <point x="1284" y="691" type="qcurve"/>
      <point x="1284" y="574"/>
      <point x="1239" y="367"/>
      <point x="1140" y="187"/>
      <point x="994" y="57"/>
      <point x="779" y="-18"/>
      <point x="646" y="-18" type="qcurve"/>
      <point x="504" y="-18"/>
      <point x="268" y="79"/>
      <point x="119" y="239"/>
      <point x="38" y="436"/>
      <point x="38" y="540" type="qcurve"/>
      <point x="38" y="616"/>
      <point x="83" y="758"/>
      <point x="179" y="883"/>
      <point x="318" y="975"/>
      <point x="518" y="1029"/>
      <point x="637" y="1029" type="qcurve"/>
      <point x="670" y="1029" type="line"/>
      <point x="646" y="1121"/>
      <point x="622" y="1169" type="qcurve"/>
      <point x="371" y="1068" type="line"/>
      <point x="308" y="1225" type="line"/>
      <point x="488" y="1297" type="line"/>
      <point x="426" y="1321"/>
      <point x="342" y="1321" type="qcurve"/>
      <point x="264" y="1321"/>
      <point x="217" y="1310" type="qcurve"/>
      <point x="217" y="1621" type="line"/>
      <point x="372" y="1654"/>
      <point x="511" y="1654" type="qcurve"/>
      <point x="807" y="1654"/>
      <point x="992" y="1499" type="qcurve"/>
    </contour>
    <contour>
      <point x="557" y="568" type="qcurve"/>
      <point x="557" y="338"/>
      <point x="668" y="338" type="qcurve"/>
      <point x="698" y="338"/>
      <point x="740" y="390"/>
      <point x="757" y="471"/>
      <point x="764" y="533"/>
      <point x="764" y="560" type="qcurve"/>
      <point x="764" y="777"/>
      <point x="666" y="777" type="qcurve"/>
      <point x="557" y="777"/>
    </contour>
  </outline>
</glyph>
<glyph name="ntilde" format="1">
  <advance width="1482"/>
  <unicode hex="00F1"/>
  <outline>
    <contour>
      <point x="661" y="1072" type="line"/>
      <point x="98" y="1072" type="line"/>
      <point x="98" y="761" type="line"/>
      <point x="174" y="761" type="line"/>
      <point x="174" y="305" type="line"/>
      <point x="91" y="305" type="line"/>
      <point x="91" y="0" type="line"/>
      <point x="749" y="0" type="line"/>
      <point x="749" y="305" type="line"/>
      <point x="661" y="305" type="line"/>
      <point x="661" y="624" type="line"/>
      <point x="661" y="671"/>
      <point x="718" y="737"/>
      <point x="765" y="737" type="qcurve"/>
      <point x="801" y="737"/>
      <point x="855" y="675"/>
      <point x="855" y="627" type="qcurve"/>
      <point x="855" y="0" type="line"/>
      <point x="1429" y="0" type="line"/>
      <point x="1429" y="305" type="line"/>
      <point x="1349" y="305" type="line"/>
      <point x="1349" y="680" type="line"/>
      <point x="1349" y="1092"/>
      <point x="1019" y="1092" type="qcurve"/>
      <point x="901" y="1092"/>
      <point x="716" y="1001"/>
      <point x="661" y="916" type="qcurve"/>
    </contour>
    <contour>
      <point x="889" y="1523" type="qcurve"/>
      <point x="933" y="1523"/>
      <point x="1005" y="1485"/>
      <point x="1057" y="1416"/>
      <point x="1096" y="1348"/>
      <point x="1143" y="1258"/>
      <point x="1161" y="1232" type="qcurve"/>
      <point x="1048" y="1158" type="line"/>
      <point x="975" y="1228"/>
      <point x="920" y="1266"/>
      <point x="901" y="1266" type="qcurve"/>
      <point x="856" y="1266"/>
      <point x="732" y="1206"/>
      <point x="599" y="1145"/>
      <point x="544" y="1145" type="qcurve"/>
      <point x="499" y="1145"/>
      <point x="427" y="1182"/>
      <point x="374" y="1251"/>
      <point x="336" y="1318"/>
      <point x="288" y="1409"/>
      <point x="270" y="1435" type="qcurve"/>
      <point x="384" y="1510" type="line"/>
      <point x="460" y="1437"/>
      <point x="516" y="1398"/>
      <point x="534" y="1398" type="qcurve"/>
      <point x="570" y="1398"/>
      <point x="664" y="1437"/>
      <point x="742" y="1484"/>
      <point x="844" y="1523"/>
    </contour>
  </outline>
</glyph>
<glyph name="ograve" format="1">
  <advance width="1290"/>
  <unicode hex="00F2"/>
  <outline>
    <contour>
      <point x="43" y="547" type="qcurve"/>
      <point x="43" y="807"/>
      <point x="365" y="1091"/>
      <point x="925" y="1091"/>
      <point x="1247" y="807"/>
      <point x="1247" y="547" type="qcurve"/>
      <point x="1247" y="372"/>
      <point x="1094" y="114"/>
      <point x="823" y="-18"/>
      <point x="467" y="-18"/>
      <point x="196" y="114"/>
      <point x="43" y="372"/>
    </contour>
    <contour>
      <point x="508" y="545" type="qcurve"/>
      <point x="508" y="294"/>
      <point x="782" y="294"/>
      <point x="782" y="545" type="qcurve"/>
      <point x="782" y="596"/>
      <point x="773" y="667"/>
      <point x="747" y="741"/>
      <point x="689" y="779"/>
      <point x="601" y="779"/>
      <point x="543" y="741"/>
      <point x="517" y="667"/>
      <point x="508" y="596"/>
    </contour>
    <contour>
      <point x="495" y="1708" type="line"/>
      <point x="969" y="1271" type="line"/>
      <point x="865" y="1130" type="line"/>
      <point x="311" y="1443" type="line"/>
    </contour>
  </outline>
</glyph>
<glyph name="ocircumflex" format="1">
  <advance width="1290"/>
  <unicode hex="00F4"/>
  <outline>
    <contour>
      <point x="43" y="547" type="qcurve"/>
      <point x="43" y="807"/>
      <point x="365" y="1091"/>
      <point x="925" y="1091"/>
      <point x="1247" y="807"/>
      <point x="1247" y="547" type="qcurve"/>
      <point x="1247" y="372"/>
      <point x="1094" y="114"/>
      <point x="823" y="-18"/>
      <point x="467" y="-18"/>
      <point x="196" y="114"/>
      <point x="43" y="372"/>
    </contour>
    <contour>
      <point x="508" y="545" type="qcurve"/>
      <point x="508" y="294"/>
      <point x="782" y="294"/>
      <point x="782" y="545" type="qcurve"/>
      <point x="782" y="596"/>
      <point x="773" y="667"/>
      <point x="747" y="741"/>
      <point x="689" y="779"/>
      <point x="601" y="779"/>
      <point x="543" y="741"/>
      <point x="517" y="667"/>
      <point x="508" y="596"/>
    </contour>
    <contour>
      <point x="504" y="1601" type="line"/>
      <point x="231" y="1224" type="line"/>
      <point x="385" y="1123" type="line"/>
      <point x="640" y="1368" type="line"/>
      <point x="895" y="1123" type="line"/>
      <point x="1049" y="1224" type="line"/>
      <point x="775" y="1600" type="line"/>
    </contour>
  </outline>
</glyph>
<glyph name="otilde" format="1">
  <advance width="1290"/>
  <unicode hex="00F5"/>
  <outline>
    <contour>
      <point x="43" y="547" type="qcurve"/>
      <point x="43" y="807"/>
      <point x="365" y="1091"/>
      <point x="925" y="1091"/>
      <point x="1247" y="807"/>
      <point x="1247" y="547" type="qcurve"/>
      <point x="1247" y="372"/>
      <point x="1094" y="114"/>
      <point x="823" y="-18"/>
      <point x="467" y="-18"/>
      <point x="196" y="114"/>
      <point x="43" y="372"/>
    </contour>
    <contour>
      <point x="508" y="545" type="qcurve"/>
      <point x="508" y="294"/>
      <point x="782" y="294"/>
      <point x="782" y="545" type="qcurve"/>
      <point x="782" y="596"/>
      <point x="773" y="667"/>
      <point x="747" y="741"/>
      <point x="689" y="779"/>
      <point x="601" y="779"/>
      <point x="543" y="741"/>
      <point x="517" y="667"/>
      <point x="508" y="596"/>
    </contour>
    <contour>
      <point x="813" y="1523" type="qcurve"/>
      <point x="857" y="1523"/>
      <point x="929" y="1485"/>
      <point x="981" y="1416"/>
      <point x="1020" y="1348"/>
      <point x="1067" y="1258"/>
      <point x="1085" y="1232" type="qcurve"/>
      <point x="972" y="1158" type="line"/>
      <point x="899" y="1228"/>
      <point x="844" y="1266"/>
      <point x="825" y="1266" type="qcurve"/>
      <point x="780" y="1266"/>
      <point x="656" y="1206"/>
      <point x="523" y="1145"/>
      <point x="468" y="1145" type="qcurve"/>
      <point x="423" y="1145"/>
      <point x="351" y="1182"/>
      <point x="298" y="1251"/>
      <point x="260" y="1318"/>
      <point x="212" y="1409"/>
      <point x="194" y="1435" type="qcurve"/>
      <point x="308" y="1510" type="line"/>
      <point x="384" y="1437"/>
      <point x="440" y="1398"/>
      <point x="458" y="1398" type="qcurve"/>
      <point x="494" y="1398"/>
      <point x="588" y="1437"/>
      <point x="666" y="1484"/>
      <point x="768" y="1523"/>
    </contour>
  </outline>
</glyph>
<glyph name="udieresis" format="1">
  <advance width="1466"/>
  <unicode hex="00FC"/>
  <outline>
    <contour>
      <point x="822" y="0" type="line"/>
      <point x="1392" y="0" type="line"/>
      <point x="1392" y="305" type="line"/>
      <point x="1316" y="305" type="line"/>
      <point x="1316" y="1072" type="line"/>
      <point x="741" y="1072" type="line"/>
      <point x="741" y="761" type="line"/>
      <point x="822" y="761" type="line"/>
      <point x="822" y="438" type="line"/>
      <point x="822" y="387"/>
      <point x="765" y="318"/>
      <point x="718" y="318" type="qcurve"/>
      <point x="682" y="318"/>
      <point x="628" y="385"/>
      <point x="628" y="438" type="qcurve"/>
      <point x="628" y="1072" type="line"/>
      <point x="54" y="1072" type="line"/>
      <point x="54" y="761" type="line"/>
      <point x="134" y="761" type="line"/>
      <point x="134" y="385" type="line"/>
      <point x="134" y="-18"/>
      <point x="464" y="-18" type="qcurve"/>
      <point x="582" y="-18"/>
      <point x="767" y="71"/>
      <point x="822" y="156" type="qcurve"/>
    </contour>
    <contour>
      <point x="647" y="1342" type="qcurve"/>
      <point x="647" y="1234"/>
      <point x="514" y="1112"/>
      <point x="423" y="1112" type="qcurve"/>
      <point x="330" y="1112"/>
      <point x="195" y="1235"/>
      <point x="195" y="1345" type="qcurve"/>
      <point x="195" y="1452"/>
      <point x="329" y="1572"/>
      <point x="513" y="1572"/>
      <point x="647" y="1451"/>
    </contour>
    <contour>
      <point x="1264" y="1342" type="qcurve"/>
      <point x="1264" y="1234"/>
      <point x="1131" y="1112"/>
      <point x="1040" y="1112" type="qcurve"/>
      <point x="947" y="1112"/>
      <point x="812" y="1235"/>
      <point x="812" y="1345" type="qcurve"/>
      <point x="812" y="1452"/>
      <point x="946" y="1572"/>
      <point x="1130" y="1572"/>
      <point x="1264" y="1451"/>
    </contour>
  </outline>
</glyph>
<glyph name="thorn" format="1">
  <advance width="1405"/>
  <unicode hex="00FE"/>
  <outline>
    <contour>
      <point x="707" y="-397" type="line"/>
      <point x="707" y="-96" type="line"/>
      <point x="596" y="-96" type="line"/>
      <point x="596" y="119" type="line"/>
      <point x="639" y="66"/>
      <point x="804" y="-9"/>
      <point x="907" y="-9" type="qcurve"/>
      <point x="1016" y="-9"/>
      <point x="1193" y="85"/>
      <point x="1302" y="242"/>
      <point x="1360" y="436"/>
      <point x="1360" y="541" type="qcurve"/>
      <point x="1360" y="648"/>
      <point x="1300" y="841"/>
      <point x="1189" y="993"/>
      <point x="1015" y="1083"/>
      <point x="909" y="1083" type="qcurve"/>
      <point x="817" y="1083"/>
      <point x="681" y="1023"/>
      <point x="617" y="956" type="qcurve"/>
      <point x="607" y="956" type="line"/>
      <point x="607" y="1447" type="line"/>
      <point x="43" y="1447" type="line"/>
      <point x="43" y="1141" type="line"/>
      <point x="117" y="1141" type="line"/>
      <point x="117" y="-94" type="line"/>
      <point x="33" y="-94" type="line"/>
      <point x="33" y="-398" type="line"/>
    </contour>
    <contour>
      <point x="596" y="417" type="line"/>
      <point x="596" y="645" type="line"/>
      <point x="597" y="649"/>
      <point x="601" y="661"/>
      <point x="621" y="694"/>
      <point x="648" y="719"/>
      <point x="697" y="739"/>
      <point x="728" y="739" type="qcurve"/>
      <point x="891" y="739"/>
      <point x="891" y="545" type="qcurve"/>
      <point x="891" y="501"/>
      <point x="876" y="424"/>
      <point x="841" y="352"/>
      <point x="773" y="310"/>
      <point x="725" y="310" type="qcurve"/>
      <point x="693" y="310"/>
      <point x="643" y="332"/>
      <point x="617" y="364"/>
      <point x="600" y="395"/>
      <point x="598" y="406" type="qcurve"/>
    </contour>
  </outline>
</glyph>
<glyph name="ydieresis" format="1">
  <advance width="1377"/>
  <unicode hex="00FF"/>
  <outline>
    <contour>
      <point x="360" y="-377" type="line"/>
      <point x="1051" y="-377" type="line"/>
      <point x="1051" y="-82" type="line"/>
      <point x="819" y="-82" type="line"/>
      <point x="1197" y="628" type="line"/>
      <point x="1218" y="668"/>
      <point x="1238" y="701"/>
      <point x="1280" y="745"/>
      <point x="1334" y="761"/>
      <point x="1373" y="761" type="qcurve"/>
      <point x="1373" y="1072" type="line"/>
      <point x="793" y="1072" type="line"/>
      <point x="793" y="761" type="line"/>
      <point x="863" y="761"/>
      <point x="883" y="751" type="qcurve"/>
      <point x="920" y="731"/>
      <point x="888" y="662" type="qcurve"/>
      <point x="791" y="454" type="line"/>
      <point x="615" y="761" type="line"/>
      <point x="683" y="761" type="line"/>
      <point x="683" y="1072" type="line"/>
      <point x="3" y="1072" type="line"/>
      <point x="3" y="761" type="line"/>
      <point x="91" y="761" type="line"/>
      <point x="557" y="31" type="line"/>
    </contour>
    <contour>
      <point x="605" y="1342" type="qcurve"/>
      <point x="605" y="1234"/>
      <point x="472" y="1112"/>
      <point x="381" y="1112" type="qcurve"/>
      <point x="288" y="1112"/>
      <point x="153" y="1235"/>
      <point x="153" y="1345" type="qcurve"/>
      <point x="153" y="1452"/>
      <point x="287" y="1572"/>
      <point x="471" y="1572"/>
      <point x="605" y="1451"/>
    </contour>
    <contour>
      <point x="1222" y="1342" type="qcurve"/>
      <point x="1222" y="1234"/>
      <point x="1089" y="1112"/>
      <point x="998" y="1112" type="qcurve"/>
      <point x="905" y="1112"/>
      <point x="770" y="1235"/>
      <point x="770" y="1345" type="qcurve"/>
      <point x="770" y="1452"/>
      <point x="904" y="1572"/>
      <point x="1088" y="1572"/>
      <point x="1222" y="1451"/>
    </contour>
  </outline>
</glyph>
<glyph name="lslash" format="1">
  <advance width="794"/>
  <unicode hex="0142"/>
  <outline>
    <contour>
      <point x="644" y="1630" type="line"/>
      <point x="65" y="1630" type="line"/>
      <point x="65" y="1317" type="line"/>
      <point x="149" y="1317" type="line"/>
      <point x="149" y="305" type="line"/>
      <point x="75" y="305" type="line"/>
      <point x="75" y="0" type="line"/>
      <point x="722" y="0" type="line"/>
      <point x="722" y="305" type="line"/>
      <point x="644" y="305" type="line"/>
    </contour>
    <contour>
      <point x="-27" y="718" type="line"/>
      <point x="73" y="540" type="line"/>
      <point x="824" y="974" type="line"/>
      <point x="725" y="1153" type="line"/>
    </contour>
  </outline>
</glyph>
<glyph name="Ydieresis" format="1">
  <advance width="1559"/>
  <unicode hex="0178"/>
  <outline>
    <contour>
      <point x="1564" y="1622" type="line"/>
      <point x="927" y="1622" type="line"/>
      <point x="927" y="1270" type="line"/>
      <point x="935" y="1270"/>
      <point x="964" y="1270"/>
      <point x="978" y="1270"/>
      <point x="1000" y="1270"/>
      <point x="1011" y="1267"/>
      <point x="1026" y="1263"/>
      <point x="1033" y="1255"/>
      <point x="1041" y="1245"/>
      <point x="1044" y="1230"/>
      <point x="1044" y="1221" type="qcurve"/>
      <point x="1044" y="1166"/>
      <point x="930" y="993" type="qcurve"/>
      <point x="909" y="1023"/>
      <point x="768" y="1240"/>
      <point x="746" y="1270" type="qcurve"/>
      <point x="837" y="1270" type="line"/>
      <point x="837" y="1622" type="line"/>
      <point x="-15" y="1622" type="line"/>
      <point x="-15" y="1270" type="line"/>
      <point x="97" y="1270" type="line"/>
      <point x="518" y="672" type="line"/>
      <point x="518" y="359" type="line"/>
      <point x="363" y="359" type="line"/>
      <point x="363" y="0" type="line"/>
      <point x="1232" y="0" type="line"/>
      <point x="1232" y="359" type="line"/>
      <point x="1075" y="359" type="line"/>
      <point x="1075" y="724" type="line"/>
      <point x="1279" y="1095" type="line"/>
      <point x="1303" y="1140"/>
      <point x="1326" y="1179"/>
      <point x="1366" y="1233"/>
      <point x="1402" y="1254"/>
      <point x="1455" y="1270"/>
      <point x="1490" y="1270" type="qcurve"/>
      <point x="1564" y="1270" type="line"/>
    </contour>
    <contour>
      <point x="694" y="1904" type="qcurve"/>
      <point x="694" y="1796"/>
      <point x="561" y="1674"/>
      <point x="470" y="1674" type="qcurve"/>
      <point x="377" y="1674"/>
      <point x="242" y="1797"/>
      <point x="242" y="1907" type="qcurve"/>
      <point x="242" y="2014"/>
      <point x="376" y="2134"/>
      <point x="560" y="2134"/>
      <point x="694" y="2013"/>
    </contour>
    <contour>
      <point x="1311" y="1904" type="qcurve"/>
      <point x="1311" y="1796"/>
      <point x="1178" y="1674"/>
      <point x="1087" y="1674" type="qcurve"/>
      <point x="994" y="1674"/>
      <point x="859" y="1797"/>
      <point x="859" y="1907" type="qcurve"/>
      <point x="859" y="2014"/>
      <point x="993" y="2134"/>
      <point x="1177" y="2134"/>
      <point x="1311" y="2013"/>
    </contour>
  </outline>
</glyph>
<glyph name="Zcaron" format="1">
  <advance width="1607"/>
  <unicode hex="017D"/>
  <outline>
    <contour>
      <point x="1495" y="1622" type="line"/>
      <point x="101" y="1622" type="line"/>
      <point x="101" y="938" type="line"/>
      <point x="389" y="938" type="line"/>
      <point x="469" y="1270" type="line"/>
      <point x="784" y="1270" type="line"/>
      <point x="105" y="350" type="line"/>
      <point x="106" y="0" type="line"/>
      <point x="1515" y="0" type="line"/>
      <point x="1516" y="705" type="line"/>
      <point x="1234" y="705" type="line"/>
      <point x="1127" y="359" type="line"/>
      <point x="818" y="359" type="line"/>
      <point x="1495" y="1293" type="line"/>
    </contour>
    <contour>
      <point x="669" y="1700" type="line"/>
      <point x="396" y="2077" type="line"/>
      <point x="550" y="2178" type="line"/>
      <point x="805" y="1933" type="line"/>
      <point x="1060" y="2178" type="line"/>
      <point x="1214" y="2077" type="line"/>
      <point x="940" y="1701" type="line"/>
    </contour>
  </outline>
</glyph>
<glyph name="uni0204" format="1">
  <advance width="1490"/>
  <unicode hex="0204"/>
  <outline>
    <contour>
      <point x="1367" y="969" type="line"/>
      <point x="1367" y="1623" type="line"/>
      <point x="99" y="1623" type="line"/>
      <point x="99" y="1270" type="line"/>
      <point x="257" y="1270" type="line"/>
      <point x="257" y="359" type="line"/>
      <point x="99" y="359" type="line"/>
      <point x="99" y="0" type="line"/>
      <point x="1378" y="0" type="line"/>
      <point x="1378" y="687" type="line"/>
      <point x="1105" y="687" type="line"/>
      <point x="1042" y="420" type="line"/>
      <point x="1029" y="359" type="line"/>
      <point x="810" y="359" type="line"/>
      <point x="810" y="636" type="line"/>
      <point x="1015" y="636" type="line"/>
      <point x="1015" y="988" type="line"/>
      <point x="810" y="988" type="line"/>
      <point x="810" y="1270" type="line"/>
      <point x="1023" y="1270" type="line"/>
      <point x="1099" y="968" type="line"/>
    </contour>
    <contour>
      <point x="988" y="2385" type="line"/>
      <point x="1141" y="1759" type="line"/>
      <point x="976" y="1699" type="line"/>
      <point x="688" y="2266" type="line"/>
    </contour>
    <contour>
      <point x="388" y="2366" type="line"/>
      <point x="695" y="1799" type="line"/>
      <point x="551" y="1700" type="line"/>
      <point x="128" y="2175" type="line"/>
    </contour>
  </outline>
</glyph>
<glyph name="uni0209" format="1">
  <advance width="814"/>
  <unicode hex="0209"/>
  <outline>
    <contour>
      <point x="662" y="1072" type="line"/>
      <point x="92" y="1072" type="line"/>
      <point x="92" y="747" type="line"/>
      <point x="181" y="747" type="line"/>
      <point x="181" y="299" type="line"/>
      <point x="99" y="299" type="line"/>
      <point x="99" y="0" type="line"/>
      <point x="746" y="0" type="line"/>
      <point x="746" y="299" type="line"/>
      <point x="662" y="299" type="line"/>
    </contour>
    <contour>
      <point x="704" y="1843" type="line"/>
      <point x="857" y="1217" type="line"/>
      <point x="692" y="1157" type="line"/>
      <point x="404" y="1724" type="line"/>
    </contour>
    <contour>
      <point x="104" y="1824" type="line"/>
      <point x="411" y="1257" type="line"/>
      <point x="267" y="1158" type="line"/>
      <point x="-156" y="1633" type="line"/>
    </contour>
  </outline>
</glyph>
<glyph name="uni020B" format="1">
  <advance width="815"/>
  <unicode hex="020B"/>
  <outline>
    <contour>
      <point x="662" y="1072" type="line"/>
      <point x="92" y="1072" type="line"/>
      <point x="92" y="747" type="line"/>
      <point x="181" y="747" type="line"/>
      <point x="181" y="299" type="line"/>
      <point x="99" y="299" type="line"/>
      <point x="99" y="0" type="line"/>
      <point x="746" y="0" type="line"/>
      <point x="746" y="299" type="line"/>
      <point x="662" y="299" type="line"/>
    </contour>
    <contour>
      <point x="14" y="1152" type="qcurve"/>
      <point x="266" y="1152" type="line"/>
      <point x="266" y="1228"/>
      <point x="356" y="1313"/>
      <point x="480" y="1313"/>
      <point x="570" y="1228"/>
      <point x="570" y="1152" type="qcurve"/>
      <point x="822" y="1152" type="line"/>
      <point x="822" y="1235"/>
      <point x="753" y="1369"/>
      <point x="638" y="1452"/>
      <point x="495" y="1496"/>
      <point x="341" y="1496"/>
      <point x="198" y="1452"/>
      <point x="83" y="1369"/>
      <point x="14" y="1235"/>
    </contour>
  </outline>
</glyph>
<glyph name="uni020E" format="1">
  <advance width="1744"/>
  <unicode hex="020E"/>
  <outline>
    <contour>
      <point x="1692" y="808" type="qcurve"/>
      <point x="1692" y="573"/>
      <point x="1477" y="189"/>
      <point x="1101" y="-29"/>
      <point x="643" y="-29"/>
      <point x="267" y="189"/>
      <point x="52" y="573"/>
      <point x="52" y="808" type="qcurve"/>
      <point x="52" y="1066"/>
      <point x="267" y="1453"/>
      <point x="636" y="1653"/>
      <point x="1108" y="1653"/>
      <point x="1477" y="1453"/>
      <point x="1692" y="1066"/>
    </contour>
    <contour>
      <point x="872" y="319" type="qcurve"/>
      <point x="911" y="319"/>
      <point x="973" y="345"/>
      <point x="1016" y="391"/>
      <point x="1048" y="453"/>
      <point x="1066" y="526"/>
      <point x="1078" y="604"/>
      <point x="1081" y="683"/>
      <point x="1083" y="759"/>
      <point x="1082" y="793" type="qcurve"/>
      <point x="1082" y="813"/>
      <point x="1082" y="823" type="qcurve"/>
      <point x="1082" y="834"/>
      <point x="1082" y="858" type="qcurve"/>
      <point x="1081" y="894"/>
      <point x="1083" y="974"/>
      <point x="1074" y="1059"/>
      <point x="1061" y="1139"/>
      <point x="1029" y="1211"/>
      <point x="986" y="1265"/>
      <point x="916" y="1296"/>
      <point x="872" y="1296" type="qcurve"/>
      <point x="833" y="1296"/>
      <point x="770" y="1272"/>
      <point x="728" y="1229"/>
      <point x="695" y="1172"/>
      <point x="678" y="1105"/>
      <point x="665" y="1032"/>
      <point x="663" y="959"/>
      <point x="660" y="889"/>
      <point x="662" y="858" type="qcurve"/>
      <point x="662" y="834"/>
      <point x="662" y="823" type="qcurve"/>
      <point x="662" y="813"/>
      <point x="662" y="793" type="qcurve"/>
      <point x="663" y="763"/>
      <point x="661" y="697"/>
      <point x="666" y="626"/>
      <point x="672" y="556"/>
      <point x="687" y="488"/>
      <point x="707" y="428"/>
      <point x="739" y="377"/>
      <point x="780" y="340"/>
      <point x="838" y="319"/>
    </contour>
    <contour>
      <point x="470" y="1699" type="qcurve"/>
      <point x="722" y="1699" type="line"/>
      <point x="722" y="1775"/>
      <point x="812" y="1860"/>
      <point x="936" y="1860"/>
      <point x="1026" y="1775"/>
      <point x="1026" y="1699" type="qcurve"/>
      <point x="1278" y="1699" type="line"/>
      <point x="1278" y="1782"/>
      <point x="1209" y="1916"/>
      <point x="1094" y="1999"/>
      <point x="951" y="2043"/>
      <point x="797" y="2043"/>
      <point x="654" y="1999"/>
      <point x="539" y="1916"/>
      <point x="470" y="1782"/>
    </contour>
  </outline>
</glyph>
<glyph name="uni0211" format="1">
  <advance width="1001"/>
  <unicode hex="0211"/>
  <outline>
    <contour>
      <point x="95" y="761" type="line"/>
      <point x="174" y="761" type="line"/>
      <point x="174" y="305" type="line"/>
      <point x="95" y="305" type="line"/>
      <point x="95" y="0" type="line"/>
      <point x="769" y="0" type="line"/>
      <point x="769" y="305" type="line"/>
      <point x="632" y="305" type="line"/>
      <point x="632" y="426" type="line"/>
      <point x="632" y="547"/>
      <point x="758" y="674"/>
      <point x="868" y="674" type="qcurve"/>
      <point x="974" y="667" type="line"/>
      <point x="974" y="1083" type="line"/>
      <point x="875" y="1083"/>
      <point x="691" y="989"/>
      <point x="642" y="905" type="qcurve"/>
      <point x="638" y="909" type="line"/>
      <point x="638" y="1072" type="line"/>
      <point x="95" y="1072" type="line"/>
    </contour>
    <contour>
      <point x="820" y="1843" type="line"/>
      <point x="973" y="1217" type="line"/>
      <point x="808" y="1157" type="line"/>
      <point x="520" y="1724" type="line"/>
    </contour>
    <contour>
      <point x="220" y="1824" type="line"/>
      <point x="527" y="1257" type="line"/>
      <point x="383" y="1158" type="line"/>
      <point x="-40" y="1633" type="line"/>
    </contour>
  </outline>
</glyph>
<glyph name="uni0217" format="1">
  <advance width="1466"/>
  <unicode hex="0217"/>
  <outline>
    <contour>
      <point x="822" y="0" type="line"/>
      <point x="1392" y="0" type="line"/>
      <point x="1392" y="305" type="line"/>
      <point x="1316" y="305" type="line"/>
      <point x="1316" y="1072" type="line"/>
      <point x="741" y="1072" type="line"/>
      <point x="741" y="761" type="line"/>
      <point x="822" y="761" type="line"/>
      <point x="822" y="438" type="line"/>
      <point x="822" y="387"/>
      <point x="765" y="318"/>
      <point x="718" y="318" type="qcurve"/>
      <point x="682" y="318"/>
      <point x="628" y="385"/>
      <point x="628" y="438" type="qcurve"/>
      <point x="628" y="1072" type="line"/>
      <point x="54" y="1072" type="line"/>
      <point x="54" y="761" type="line"/>
      <point x="134" y="761" type="line"/>
      <point x="134" y="385" type="line"/>
      <point x="134" y="-18"/>
      <point x="464" y="-18" type="qcurve"/>
      <point x="582" y="-18"/>
      <point x="767" y="71"/>
      <point x="822" y="156" type="qcurve"/>
    </contour>
    <contour>
      <point x="291" y="1152" type="qcurve"/>
      <point x="543" y="1152" type="line"/>
      <point x="543" y="1228"/>
      <point x="633" y="1313"/>
      <point x="757" y="1313"/>
      <point x="847" y="1228"/>
      <point x="847" y="1152" type="qcurve"/>
      <point x="1099" y="1152" type="line"/>
      <point x="1099" y="1235"/>
      <point x="1030" y="1369"/>
      <point x="915" y="1452"/>
      <point x="772" y="1496"/>
      <point x="618" y="1496"/>
      <point x="475" y="1452"/>
      <point x="360" y="1369"/>
      <point x="291" y="1235"/>
    </contour>
  </outline>
</glyph>
<glyph name="scommaaccent" format="1">
  <advance width="1055"/>
  <unicode hex="0219"/>
  <outline>
    <contour>
      <point x="244" y="-899" type="line"/>
      <point x="518" y="-899"/>
      <point x="778" y="-640"/>
      <point x="778" y="-362" type="qcurve"/>
      <point x="778" y="-239"/>
      <point x="754" y="-85" type="qcurve"/>
      <point x="244" y="-85" type="line"/>
      <point x="244" y="-451" type="line"/>
      <point x="433" y="-451" type="line"/>
      <point x="433" y="-493"/>
      <point x="431" y="-538"/>
      <point x="420" y="-598"/>
      <point x="396" y="-630"/>
      <point x="355" y="-661"/>
      <point x="289" y="-674"/>
      <point x="244" y="-674" type="qcurve"/>
    </contour>
    <contour>
      <point x="976" y="761" type="line"/>
      <point x="976" y="1081" type="line"/>
      <point x="808" y="1081" type="line"/>
      <point x="781" y="1033" type="line"/>
      <point x="771" y="1040"/>
      <point x="731" y="1059"/>
      <point x="579" y="1092"/>
      <point x="487" y="1092" type="qcurve"/>
      <point x="366" y="1092"/>
      <point x="185" y="1022"/>
      <point x="75" y="863"/>
      <point x="75" y="746" type="qcurve"/>
      <point x="75" y="669"/>
      <point x="130" y="553"/>
      <point x="217" y="485"/>
      <point x="322" y="436"/>
      <point x="428" y="402"/>
      <point x="515" y="370"/>
      <point x="570" y="321"/>
      <point x="570" y="287" type="qcurve"/>
      <point x="570" y="249"/>
      <point x="503" y="209"/>
      <point x="462" y="209" type="qcurve"/>
      <point x="396" y="209"/>
      <point x="304" y="318"/>
      <point x="292" y="387" type="qcurve"/>
      <point x="71" y="387" type="line"/>
      <point x="64" y="9" type="line"/>
      <point x="241" y="9" type="line"/>
      <point x="277" y="76" type="line"/>
      <point x="377" y="-18"/>
      <point x="585" y="-18" type="qcurve"/>
      <point x="788" y="-18"/>
      <point x="996" y="192"/>
      <point x="996" y="395" type="qcurve"/>
      <point x="996" y="621"/>
      <point x="755" y="719" type="qcurve"/>
      <point x="741" y="724"/>
      <point x="647" y="748"/>
      <point x="577" y="770"/>
      <point x="517" y="816"/>
      <point x="517" y="846" type="qcurve"/>
      <point x="517" y="881"/>
      <point x="572" y="920"/>
      <point x="609" y="920" type="qcurve"/>
      <point x="643" y="920"/>
      <point x="713" y="884"/>
      <point x="732" y="856" type="qcurve"/>
      <point x="736" y="851"/>
      <point x="758" y="803"/>
      <point x="766" y="782" type="qcurve"/>
      <point x="775" y="761" type="line"/>
    </contour>
  </outline>
</glyph>
<glyph name="circumflex" format="1">
  <advance width="1016"/>
  <unicode hex="02C6"/>
  <outline>
    <contour>
      <point x="376" y="1601" type="line"/>
      <point x="103" y="1224" type="line"/>
      <point x="257" y="1123" type="line"/>
      <point x="512" y="1368" type="line"/>
      <point x="767" y="1123" type="line"/>
      <point x="921" y="1224" type="line"/>
      <point x="647" y="1600" type="line"/>
    </contour>
  </outline>
</glyph>
<glyph name="ogonek" format="1">
  <advance width="1707"/>
  <unicode hex="02DB"/>
  <outline>
    <contour>
      <point x="871" y="0" type="line"/>
      <point x="842" y="-60"/>
      <point x="766" y="-182"/>
      <point x="731" y="-247"/>
      <point x="731" y="-271" type="qcurve"/>
      <point x="731" y="-315"/>
      <point x="821" y="-371"/>
      <point x="918" y="-372" type="qcurve"/>
      <point x="918" y="-485" type="line"/>
      <point x="897" y="-485" type="line"/>
      <point x="745" y="-485"/>
      <point x="528" y="-367"/>
      <point x="528" y="-285" type="qcurve"/>
      <point x="528" y="-269"/>
      <point x="538" y="-237"/>
      <point x="570" y="-181"/>
      <point x="596" y="-141"/>
      <point x="667" y="-37"/>
      <point x="691" y="0" type="qcurve"/>
    </contour>
  </outline>
</glyph>
<glyph name="hungarumlaut" format="1">
  <advance width="1478"/>
  <unicode hex="02DD"/>
  <outline>
    <contour>
      <point x="483" y="1814" type="line"/>
      <point x="330" y="1188" type="line"/>
      <point x="495" y="1128" type="line"/>
      <point x="783" y="1695" type="line"/>
    </contour>
    <contour>
      <point x="1083" y="1795" type="line"/>
      <point x="776" y="1228" type="line"/>
      <point x="920" y="1129" type="line"/>
      <point x="1343" y="1604" type="line"/>
    </contour>
  </outline>
</glyph>
<glyph name="Omega" format="1">
  <advance width="1522"/>
  <unicode hex="03A9"/>
  <outline>
    <contour>
      <point x="1093" y="973" type="qcurve"/>
      <point x="1093" y="798"/>
      <point x="1053" y="540"/>
      <point x="995" y="422"/>
      <point x="937" y="355"/>
      <point x="917" y="351" type="qcurve"/>
      <point x="897" y="347" type="line"/>
      <point x="897" y="0" type="line"/>
      <point x="1449" y="0" type="line"/>
      <point x="1449" y="312" type="line"/>
      <point x="1208" y="312" type="line"/>
      <point x="1345" y="441"/>
      <point x="1495" y="782"/>
      <point x="1495" y="952" type="qcurve"/>
      <point x="1495" y="1065"/>
      <point x="1444" y="1269"/>
      <point x="1335" y="1448"/>
      <point x="1177" y="1578"/>
      <point x="950" y="1653"/>
      <point x="676" y="1653"/>
      <point x="449" y="1578"/>
      <point x="291" y="1448"/>
      <point x="182" y="1269"/>
      <point x="131" y="1065"/>
      <point x="131" y="952" type="qcurve"/>
      <point x="131" y="782"/>
      <point x="281" y="441"/>
      <point x="418" y="312" type="qcurve"/>
      <point x="177" y="312" type="line"/>
      <point x="177" y="0" type="line"/>
      <point x="729" y="0" type="line"/>
      <point x="729" y="347" type="line"/>
      <point x="721" y="347"/>
      <point x="695" y="354"/>
      <point x="627" y="422"/>
      <point x="575" y="540"/>
      <point x="533" y="798"/>
      <point x="533" y="973" type="qcurve"/>
      <point x="533" y="1067"/>
      <point x="562" y="1220"/>
      <point x="624" y="1347"/>
      <point x="736" y="1418"/>
      <point x="890" y="1418"/>
      <point x="1002" y="1347"/>
      <point x="1064" y="1220"/>
      <point x="1093" y="1067"/>
    </contour>
  </outline>
</glyph>
<glyph name="endash" format="1">
  <advance width="838"/>
  <unicode hex="2013"/>
  <outline>
    <contour>
      <point x="95" y="836" type="line"/>
      <point x="95" y="537" type="line"/>
      <point x="742" y="537" type="line"/>
      <point x="742" y="836" type="line"/>
    </contour>
  </outline>
</glyph>
<glyph name="emdash" format="1">
  <advance width="1360"/>
  <unicode hex="2014"/>
  <outline>
    <contour>
      <point x="95" y="836" type="line"/>
      <point x="95" y="537" type="line"/>
      <point x="1265" y="537" type="line"/>
      <point x="1265" y="836" type="line"/>
    </contour>
  </outline>
</glyph>
<glyph name="quoteleft" format="1">
  <advance width="683"/>
  <unicode hex="2018"/>
  <outline>
    <contour>
      <point x="601" y="1653" type="line"/>
      <point x="327" y="1653"/>
      <point x="67" y="1394"/>
      <point x="67" y="1116" type="qcurve"/>
      <point x="67" y="993"/>
      <point x="91" y="839" type="qcurve"/>
      <point x="601" y="839" type="line"/>
      <point x="601" y="1205" type="line"/>
      <point x="412" y="1205" type="line"/>
      <point x="412" y="1247"/>
      <point x="414" y="1292"/>
      <point x="425" y="1352"/>
      <point x="449" y="1384"/>
      <point x="490" y="1415"/>
      <point x="556" y="1428"/>
      <point x="601" y="1428" type="qcurve"/>
    </contour>
  </outline>
</glyph>
<glyph name="quotedblleft" format="1">
  <advance width="1315"/>
  <unicode hex="201C"/>
  <outline>
    <contour>
      <point x="1233" y="1653" type="line"/>
      <point x="959" y="1653"/>
      <point x="699" y="1394"/>
      <point x="699" y="1116" type="qcurve"/>
      <point x="699" y="993"/>
      <point x="723" y="839" type="qcurve"/>
      <point x="1233" y="839" type="line"/>
      <point x="1233" y="1205" type="line"/>
      <point x="1044" y="1205" type="line"/>
      <point x="1044" y="1247"/>
      <point x="1046" y="1292"/>
      <point x="1057" y="1352"/>
      <point x="1081" y="1384"/>
      <point x="1122" y="1415"/>
      <point x="1188" y="1428"/>
      <point x="1233" y="1428" type="qcurve"/>
    </contour>
    <contour>
      <point x="602" y="1653" type="line"/>
      <point x="328" y="1653"/>
      <point x="68" y="1394"/>
      <point x="68" y="1116" type="qcurve"/>
      <point x="68" y="993"/>
      <point x="92" y="839" type="qcurve"/>
      <point x="602" y="839" type="line"/>
      <point x="602" y="1205" type="line"/>
      <point x="413" y="1205" type="line"/>
      <point x="413" y="1247"/>
      <point x="415" y="1292"/>
      <point x="426" y="1352"/>
      <point x="450" y="1384"/>
      <point x="491" y="1415"/>
      <point x="557" y="1428"/>
      <point x="602" y="1428" type="qcurve"/>
    </contour>
  </outline>
</glyph>
<glyph name="quotedblbase" format="1">
  <advance width="1350"/>
  <unicode hex="201E"/>
  <outline>
    <contour>
      <point x="730" y="-448" type="line"/>
      <point x="1004" y="-448"/>
      <point x="1264" y="-189"/>
      <point x="1264" y="89" type="qcurve"/>
      <point x="1264" y="212"/>
      <point x="1240" y="366" type="qcurve"/>
      <point x="730" y="366" type="line"/>
      <point x="730" y="0" type="line"/>
      <point x="919" y="0" type="line"/>
      <point x="919" y="-42"/>
      <point x="917" y="-87"/>
      <point x="906" y="-147"/>
      <point x="882" y="-179"/>
      <point x="841" y="-210"/>
      <point x="775" y="-223"/>
      <point x="730" y="-223" type="qcurve"/>
    </contour>
    <contour>
      <point x="95" y="-448" type="line"/>
      <point x="369" y="-448"/>
      <point x="629" y="-189"/>
      <point x="629" y="89" type="qcurve"/>
      <point x="629" y="212"/>
      <point x="605" y="366" type="qcurve"/>
      <point x="95" y="366" type="line"/>
      <point x="95" y="0" type="line"/>
      <point x="284" y="0" type="line"/>
      <point x="284" y="-42"/>
      <point x="282" y="-87"/>
      <point x="271" y="-147"/>
      <point x="247" y="-179"/>
      <point x="206" y="-210"/>
      <point x="140" y="-223"/>
      <point x="95" y="-223" type="qcurve"/>
    </contour>
  </outline>
</glyph>
<glyph name="dagger" format="1">
  <advance width="916"/>
  <unicode hex="2020"/>
  <outline>
    <contour>
      <point x="61" y="991" type="line"/>
      <point x="303" y="991" type="line"/>
      <point x="303" y="0" type="line"/>
      <point x="618" y="0" type="line"/>
      <point x="618" y="991" type="line"/>
      <point x="853" y="991" type="line"/>
      <point x="853" y="1286" type="line"/>
      <point x="618" y="1286" type="line"/>
      <point x="618" y="1623" type="line"/>
      <point x="303" y="1623" type="line"/>
      <point x="303" y="1286" type="line"/>
      <point x="61" y="1286" type="line"/>
    </contour>
  </outline>
</glyph>
<glyph name="ellipsis" format="1">
  <advance width="2158"/>
  <unicode hex="2026"/>
  <outline>
    <contour>
      <point x="1815" y="-27" type="qcurve"/>
      <point x="1696" y="-27"/>
      <point x="1538" y="108"/>
      <point x="1538" y="223" type="qcurve"/>
      <point x="1538" y="336"/>
      <point x="1693" y="468"/>
      <point x="1815" y="468" type="qcurve"/>
      <point x="1942" y="468"/>
      <point x="2102" y="336"/>
      <point x="2102" y="223" type="qcurve"/>
      <point x="2102" y="108"/>
      <point x="1937" y="-27"/>
    </contour>
    <contour>
      <point x="1074" y="-27" type="qcurve"/>
      <point x="955" y="-27"/>
      <point x="797" y="108"/>
      <point x="797" y="223" type="qcurve"/>
      <point x="797" y="336"/>
      <point x="952" y="468"/>
      <point x="1074" y="468" type="qcurve"/>
      <point x="1201" y="468"/>
      <point x="1361" y="336"/>
      <point x="1361" y="223" type="qcurve"/>
      <point x="1361" y="108"/>
      <point x="1196" y="-27"/>
    </contour>
    <contour>
      <point x="334" y="-27" type="qcurve"/>
      <point x="215" y="-27"/>
      <point x="57" y="108"/>
      <point x="57" y="223" type="qcurve"/>
      <point x="57" y="336"/>
      <point x="212" y="468"/>
      <point x="334" y="468" type="qcurve"/>
      <point x="461" y="468"/>
      <point x="621" y="336"/>
      <point x="621" y="223" type="qcurve"/>
      <point x="621" y="108"/>
      <point x="456" y="-27"/>
    </contour>
  </outline>
</glyph>
<glyph name="perthousand" format="1">
  <advance width="3811"/>
  <unicode hex="2030"/>
  <outline>
    <contour>
      <point x="2760" y="521" type="qcurve"/>
      <point x="2760" y="273"/>
      <point x="3032" y="-18"/>
      <point x="3278" y="-18" type="qcurve"/>
      <point x="3395" y="-18"/>
      <point x="3581" y="78"/>
      <point x="3695" y="240"/>
      <point x="3755" y="442"/>
      <point x="3755" y="555" type="qcurve"/>
      <point x="3755" y="800"/>
      <point x="3497" y="1096"/>
      <point x="3254" y="1096" type="qcurve"/>
      <point x="3106" y="1096"/>
      <point x="2878" y="939"/>
      <point x="2760" y="679"/>
    </contour>
    <contour>
      <point x="3260" y="755" type="qcurve"/>
      <point x="3283" y="753"/>
      <point x="3317" y="731"/>
      <point x="3337" y="690"/>
      <point x="3350" y="653"/>
      <point x="3354" y="595"/>
      <point x="3355" y="566"/>
      <point x="3355" y="540" type="qcurve"/>
      <point x="3354" y="513" type="line"/>
      <point x="3354" y="491"/>
      <point x="3352" y="457"/>
      <point x="3347" y="411"/>
      <point x="3333" y="378"/>
      <point x="3313" y="348"/>
      <point x="3279" y="332"/>
      <point x="3257" y="332" type="qcurve"/>
      <point x="3164" y="332"/>
      <point x="3164" y="540" type="qcurve"/>
      <point x="3164" y="651"/>
      <point x="3180" y="693" type="qcurve"/>
      <point x="3204" y="752"/>
    </contour>
    <contour>
      <point x="1440" y="0" type="line"/>
      <point x="1782" y="1623" type="line"/>
      <point x="1278" y="1623" type="line"/>
      <point x="937" y="0" type="line"/>
    </contour>
    <contour>
      <point x="56" y="1078" type="qcurve"/>
      <point x="56" y="830"/>
      <point x="328" y="539"/>
      <point x="574" y="539" type="qcurve"/>
      <point x="691" y="539"/>
      <point x="877" y="635"/>
      <point x="991" y="797"/>
      <point x="1051" y="999"/>
      <point x="1051" y="1112" type="qcurve"/>
      <point x="1051" y="1357"/>
      <point x="793" y="1653"/>
      <point x="550" y="1653" type="qcurve"/>
      <point x="402" y="1653"/>
      <point x="174" y="1496"/>
      <point x="56" y="1236"/>
    </contour>
    <contour>
      <point x="556" y="1312" type="qcurve"/>
      <point x="579" y="1310"/>
      <point x="613" y="1288"/>
      <point x="633" y="1247"/>
      <point x="646" y="1210"/>
      <point x="650" y="1152"/>
      <point x="651" y="1123"/>
      <point x="651" y="1096" type="qcurve"/>
      <point x="650" y="1070" type="line"/>
      <point x="650" y="1048"/>
      <point x="648" y="1014"/>
      <point x="643" y="968"/>
      <point x="629" y="935"/>
      <point x="609" y="905"/>
      <point x="575" y="889"/>
      <point x="553" y="889" type="qcurve"/>
      <point x="460" y="889"/>
      <point x="460" y="1097" type="qcurve"/>
      <point x="460" y="1208"/>
      <point x="476" y="1250" type="qcurve"/>
      <point x="499" y="1310"/>
    </contour>
    <contour>
      <point x="1675" y="521" type="qcurve"/>
      <point x="1675" y="273"/>
      <point x="1947" y="-18"/>
      <point x="2193" y="-18" type="qcurve"/>
      <point x="2310" y="-18"/>
      <point x="2496" y="78"/>
      <point x="2610" y="240"/>
      <point x="2670" y="442"/>
      <point x="2670" y="555" type="qcurve"/>
      <point x="2670" y="800"/>
      <point x="2412" y="1096"/>
      <point x="2169" y="1096" type="qcurve"/>
      <point x="2021" y="1096"/>
      <point x="1793" y="939"/>
      <point x="1675" y="679"/>
    </contour>
    <contour>
      <point x="2175" y="755" type="qcurve"/>
      <point x="2198" y="753"/>
      <point x="2232" y="731"/>
      <point x="2252" y="690"/>
      <point x="2265" y="653"/>
      <point x="2269" y="595"/>
      <point x="2270" y="566"/>
      <point x="2269" y="540" type="qcurve"/>
      <point x="2269" y="513" type="line"/>
      <point x="2269" y="491"/>
      <point x="2267" y="457"/>
      <point x="2262" y="411"/>
      <point x="2248" y="378"/>
      <point x="2228" y="348"/>
      <point x="2194" y="332"/>
      <point x="2172" y="332" type="qcurve"/>
      <point x="2079" y="332"/>
      <point x="2079" y="540" type="qcurve"/>
      <point x="2079" y="651"/>
      <point x="2095" y="693" type="qcurve"/>
      <point x="2119" y="752"/>
    </contour>
  </outline>
</glyph>
<glyph name="guilsinglleft" format="1">
  <advance width="696"/>
  <unicode hex="2039"/>
  <outline>
    <contour>
      <point x="33" y="399" type="line"/>
      <point x="459" y="-5" type="line"/>
      <point x="650" y="219" type="line"/>
      <point x="335" y="534" type="line"/>
      <point x="650" y="849" type="line"/>
      <point x="459" y="1073" type="line"/>
      <point x="33" y="669" type="line"/>
    </contour>
  </outline>
</glyph>
<glyph name="fraction" format="1">
  <advance width="962"/>
  <unicode hex="2044"/>
  <outline>
    <contour>
      <point x="597" y="0" type="line"/>
      <point x="939" y="1623" type="line"/>
      <point x="365" y="1623" type="line"/>
      <point x="24" y="0" type="line"/>
    </contour>
  </outline>
</glyph>
<glyph name="Euro" format="1">
  <advance width="1608"/>
  <unicode hex="20AC"/>
  <outline>
    <contour>
      <point x="65" y="1091" type="line"/>
      <point x="65" y="867" type="line"/>
      <point x="153" y="867" type="line"/>
      <point x="152" y="846"/>
      <point x="152" y="762"/>
      <point x="153" y="741" type="qcurve"/>
      <point x="65" y="741" type="line"/>
      <point x="65" y="517" type="line"/>
      <point x="185" y="517" type="line"/>
      <point x="213" y="402"/>
      <point x="314" y="214"/>
      <point x="464" y="65"/>
      <point x="677" y="-18"/>
      <point x="806" y="-18" type="qcurve"/>
      <point x="880" y="-18"/>
      <point x="986" y="-8"/>
      <point x="1121" y="39"/>
      <point x="1166" y="82" type="qcurve"/>
      <point x="1200" y="11" type="line"/>
      <point x="1511" y="11" type="line"/>
      <point x="1512" y="643" type="line"/>
      <point x="1214" y="643" type="line"/>
      <point x="1215" y="590"/>
      <point x="1191" y="489"/>
      <point x="1139" y="399"/>
      <point x="1043" y="344"/>
      <point x="980" y="344" type="qcurve"/>
      <point x="846" y="344"/>
      <point x="800" y="517" type="qcurve"/>
      <point x="980" y="517" type="line"/>
      <point x="980" y="741" type="line"/>
      <point x="773" y="741" type="line"/>
      <point x="773" y="804" type="line"/>
      <point x="773" y="867" type="line"/>
      <point x="980" y="867" type="line"/>
      <point x="980" y="1091" type="line"/>
      <point x="797" y="1091" type="line"/>
      <point x="843" y="1290"/>
      <point x="980" y="1290" type="qcurve"/>
      <point x="1043" y="1290"/>
      <point x="1139" y="1235"/>
      <point x="1191" y="1145"/>
      <point x="1215" y="1044"/>
      <point x="1214" y="991" type="qcurve"/>
      <point x="1512" y="991" type="line"/>
      <point x="1511" y="1623" type="line"/>
      <point x="1200" y="1623" type="line"/>
      <point x="1166" y="1552" type="line"/>
      <point x="1121" y="1595"/>
      <point x="986" y="1642"/>
      <point x="880" y="1652"/>
      <point x="806" y="1652" type="qcurve"/>
      <point x="702" y="1652"/>
      <point x="522" y="1593"/>
      <point x="386" y="1491"/>
      <point x="278" y="1348"/>
      <point x="206" y="1185"/>
      <point x="184" y="1091" type="qcurve"/>
    </contour>
  </outline>
</glyph>
<glyph name="trademark" format="1">
  <advance width="2717"/>
  <unicode hex="2122"/>
  <outline>
    <contour>
      <point x="1041" y="1183" type="line"/>
      <point x="1041" y="1622" type="line"/>
      <point x="66" y="1622" type="line"/>
      <point x="66" y="1183" type="line"/>
      <point x="254" y="1183" type="line"/>
      <point x="297" y="1382" type="line"/>
      <point x="364" y="1382" type="line"/>
      <point x="364" y="778" type="line"/>
      <point x="254" y="778" type="line"/>
      <point x="254" y="537" type="line"/>
      <point x="850" y="537" type="line"/>
      <point x="850" y="778" type="line"/>
      <point x="740" y="778" type="line"/>
      <point x="740" y="1382" type="line"/>
      <point x="811" y="1382" type="line"/>
      <point x="853" y="1183" type="line"/>
    </contour>
    <contour>
      <point x="1462" y="1205" type="line"/>
      <point x="1741" y="537" type="line"/>
      <point x="1929" y="537" type="line"/>
      <point x="2158" y="1191" type="line"/>
      <point x="2158" y="783" type="line"/>
      <point x="2075" y="783" type="line"/>
      <point x="2075" y="537" type="line"/>
      <point x="2613" y="537" type="line"/>
      <point x="2613" y="783" type="line"/>
      <point x="2510" y="783" type="line"/>
      <point x="2510" y="1390" type="line"/>
      <point x="2608" y="1390" type="line"/>
      <point x="2608" y="1623" type="line"/>
      <point x="2083" y="1623" type="line"/>
      <point x="1899" y="1110" type="line"/>
      <point x="1691" y="1623" type="line"/>
      <point x="1133" y="1623" type="line"/>
      <point x="1133" y="1383" type="line"/>
      <point x="1245" y="1383" type="line"/>
      <point x="1245" y="944" type="line"/>
      <point x="1245" y="904"/>
      <point x="1243" y="866"/>
      <point x="1233" y="814"/>
      <point x="1210" y="791"/>
      <point x="1167" y="774"/>
      <point x="1135" y="774" type="qcurve"/>
      <point x="1135" y="537" type="line"/>
      <point x="1571" y="537" type="line"/>
      <point x="1571" y="781" type="line"/>
      <point x="1539" y="781"/>
      <point x="1496" y="795"/>
      <point x="1474" y="811"/>
      <point x="1463" y="848"/>
      <point x="1462" y="870"/>
      <point x="1462" y="895" type="qcurve"/>
    </contour>
  </outline>
</glyph>
<glyph name="uni2206" format="1">
  <advance width="1432"/>
  <unicode hex="2206"/>
  <outline>
    <contour>
      <point x="137" y="55" type="line"/>
      <point x="457" y="1238" type="line"/>
      <point x="930" y="1238" type="line"/>
      <point x="1220" y="55" type="line"/>
      <point x="1220" y="0" type="line"/>
      <point x="137" y="0" type="line"/>
    </contour>
    <contour>
      <point x="536" y="205" type="line"/>
      <point x="916" y="205" type="line"/>
      <point x="745" y="1080" type="line"/>
    </contour>
  </outline>
</glyph>
<glyph name="product" format="1">
  <advance width="1837"/>
  <unicode hex="220F"/>
  <outline>
    <contour>
      <point x="1763" y="1623" type="line"/>
      <point x="70" y="1623" type="line"/>
      <point x="70" y="1247" type="line"/>
      <point x="217" y="1247" type="line"/>
      <point x="217" y="351" type="line"/>
      <point x="70" y="351" type="line"/>
      <point x="70" y="0" type="line"/>
      <point x="879" y="0" type="line"/>
      <point x="880" y="351" type="line"/>
      <point x="784" y="351" type="line"/>
      <point x="784" y="1272" type="line"/>
      <point x="1053" y="1272" type="line"/>
      <point x="1053" y="351" type="line"/>
      <point x="969" y="351" type="line"/>
      <point x="969" y="0" type="line"/>
      <point x="1769" y="0" type="line"/>
      <point x="1769" y="351" type="line"/>
      <point x="1622" y="351" type="line"/>
      <point x="1622" y="1247" type="line"/>
      <point x="1763" y="1247" type="line"/>
    </contour>
  </outline>
</glyph>
<glyph name="radical" format="1">
  <advance width="2486"/>
  <unicode hex="221A"/>
  <outline>
    <contour>
      <point x="79" y="978" type="line"/>
      <point x="560" y="977" type="line"/>
      <point x="752" y="218" type="line"/>
      <point x="1062" y="1622" type="line"/>
      <point x="1876" y="1622" type="line"/>
      <point x="1876" y="1249" type="line"/>
      <point x="1223" y="1249" type="line"/>
      <point x="930" y="0" type="line"/>
      <point x="457" y="0" type="line"/>
      <point x="322" y="588" type="line"/>
      <point x="289" y="644"/>
      <point x="210" y="667"/>
      <point x="79" y="667" type="qcurve"/>
    </contour>
  </outline>
</glyph>
<glyph name="infinity" format="1">
  <advance width="1337"/>
  <unicode hex="221E"/>
  <outline>
    <contour>
      <point x="621" y="391" type="line"/>
      <point x="617" y="386"/>
      <point x="602" y="369"/>
      <point x="549" y="326"/>
      <point x="489" y="294"/>
      <point x="393" y="267"/>
      <point x="341" y="267" type="qcurve"/>
      <point x="255" y="267"/>
      <point x="120" y="323"/>
      <point x="42" y="408"/>
      <point x="-8" y="521"/>
      <point x="-26" y="620"/>
      <point x="-26" y="720"/>
      <point x="-8" y="819"/>
      <point x="42" y="932"/>
      <point x="120" y="1017"/>
      <point x="255" y="1073"/>
      <point x="341" y="1073" type="qcurve"/>
      <point x="393" y="1073"/>
      <point x="488" y="1045"/>
      <point x="551" y="1006"/>
      <point x="599" y="967"/>
      <point x="610" y="953" type="qcurve"/>
      <point x="621" y="939" type="line"/>
      <point x="625" y="944"/>
      <point x="641" y="963"/>
      <point x="696" y="1009"/>
      <point x="756" y="1044"/>
      <point x="851" y="1073"/>
      <point x="901" y="1073" type="qcurve"/>
      <point x="987" y="1073"/>
      <point x="1122" y="1017"/>
      <point x="1200" y="932"/>
      <point x="1250" y="819"/>
      <point x="1268" y="720"/>
      <point x="1268" y="620"/>
      <point x="1250" y="521"/>
      <point x="1200" y="408"/>
      <point x="1122" y="323"/>
      <point x="987" y="267"/>
      <point x="901" y="267" type="qcurve"/>
      <point x="851" y="267"/>
      <point x="757" y="293"/>
      <point x="694" y="329"/>
      <point x="644" y="365"/>
      <point x="632" y="378" type="qcurve"/>
    </contour>
    <contour>
      <point x="345" y="590" type="qcurve"/>
      <point x="372" y="590"/>
      <point x="463" y="630"/>
      <point x="495" y="650" type="qcurve"/>
      <point x="527" y="670" type="line"/>
      <point x="405" y="750"/>
      <point x="345" y="750" type="qcurve"/>
      <point x="321" y="750"/>
      <point x="288" y="745"/>
      <point x="250" y="731"/>
      <point x="230" y="696"/>
      <point x="230" y="644"/>
      <point x="250" y="609"/>
      <point x="288" y="595"/>
      <point x="321" y="590"/>
    </contour>
    <contour>
      <point x="897" y="750" type="qcurve"/>
      <point x="870" y="750"/>
      <point x="779" y="710"/>
      <point x="747" y="690" type="qcurve"/>
      <point x="715" y="670" type="line"/>
      <point x="837" y="590"/>
      <point x="897" y="590" type="qcurve"/>
      <point x="921" y="590"/>
      <point x="954" y="595"/>
      <point x="992" y="609"/>
      <point x="1012" y="644"/>
      <point x="1012" y="696"/>
      <point x="992" y="731"/>
      <point x="954" y="745"/>
      <point x="921" y="750"/>
    </contour>
  </outline>
</glyph>
<glyph name="integral" format="1">
  <advance width="864"/>
  <unicode hex="222B"/>
  <outline>
    <contour>
      <point x="616" y="1072" type="qcurve"/>
      <point x="610" y="1180"/>
      <point x="663" y="1265"/>
      <point x="726" y="1265" type="qcurve"/>
      <point x="764" y="1265"/>
      <point x="822" y="1252" type="qcurve"/>
      <point x="822" y="1563" type="line"/>
      <point x="808" y="1568"/>
      <point x="755" y="1584"/>
      <point x="594" y="1610"/>
      <point x="514" y="1610" type="qcurve"/>
      <point x="134" y="1610"/>
      <point x="134" y="1207" type="qcurve"/>
      <point x="134" y="299" type="line"/>
      <point x="134" y="188"/>
      <point x="88" y="106"/>
      <point x="27" y="106" type="qcurve"/>
      <point x="-10" y="106"/>
      <point x="-69" y="119" type="qcurve"/>
      <point x="-69" y="-192" type="line"/>
      <point x="-55" y="-197"/>
      <point x="-2" y="-213"/>
      <point x="159" y="-239"/>
      <point x="239" y="-239" type="qcurve"/>
      <point x="616" y="-239"/>
      <point x="616" y="164" type="qcurve"/>
      <point x="623" y="298"/>
    </contour>
  </outline>
</glyph>
<glyph name="approxequal" format="1">
  <advance width="1707"/>
  <unicode hex="2248"/>
  <outline>
    <contour>
      <point x="1090" y="74" type="qcurve"/>
      <point x="1148" y="74"/>
      <point x="1240" y="126"/>
      <point x="1308" y="221"/>
      <point x="1357" y="316"/>
      <point x="1418" y="441"/>
      <point x="1442" y="477" type="qcurve"/>
      <point x="1313" y="562" type="line"/>
      <point x="1210" y="438"/>
      <point x="1129" y="368"/>
      <point x="1104" y="368" type="qcurve"/>
      <point x="1060" y="368"/>
      <point x="954" y="409"/>
      <point x="853" y="467"/>
      <point x="749" y="526"/>
      <point x="630" y="567"/>
      <point x="575" y="567" type="qcurve"/>
      <point x="517" y="567"/>
      <point x="424" y="516"/>
      <point x="356" y="421"/>
      <point x="306" y="328"/>
      <point x="245" y="202"/>
      <point x="221" y="165" type="qcurve"/>
      <point x="352" y="79" type="line"/>
      <point x="461" y="209"/>
      <point x="537" y="277"/>
      <point x="564" y="277" type="qcurve"/>
      <point x="608" y="277"/>
      <point x="713" y="235"/>
      <point x="812" y="175"/>
      <point x="916" y="116"/>
      <point x="1035" y="74"/>
    </contour>
    <contour>
      <point x="1112" y="629" type="qcurve"/>
      <point x="1170" y="629"/>
      <point x="1262" y="681"/>
      <point x="1330" y="776"/>
      <point x="1379" y="871"/>
      <point x="1440" y="996"/>
      <point x="1464" y="1032" type="qcurve"/>
      <point x="1335" y="1117" type="line"/>
      <point x="1232" y="993"/>
      <point x="1151" y="923"/>
      <point x="1126" y="923" type="qcurve"/>
      <point x="1082" y="923"/>
      <point x="976" y="964"/>
      <point x="875" y="1022"/>
      <point x="771" y="1081"/>
      <point x="652" y="1122"/>
      <point x="597" y="1122" type="qcurve"/>
      <point x="539" y="1122"/>
      <point x="446" y="1071"/>
      <point x="378" y="976"/>
      <point x="328" y="883"/>
      <point x="267" y="757"/>
      <point x="243" y="720" type="qcurve"/>
      <point x="374" y="634" type="line"/>
      <point x="483" y="764"/>
      <point x="559" y="832"/>
      <point x="586" y="832" type="qcurve"/>
      <point x="630" y="832"/>
      <point x="735" y="790"/>
      <point x="834" y="730"/>
      <point x="938" y="671"/>
      <point x="1057" y="629"/>
    </contour>
  </outline>
</glyph>
<glyph name="notequal" format="1">
  <advance width="774"/>
  <unicode hex="2260"/>
  <outline>
    <contour>
      <point x="70" y="392" type="line"/>
      <point x="70" y="169" type="line"/>
      <point x="717" y="169" type="line"/>
      <point x="717" y="392" type="line"/>
    </contour>
    <contour>
      <point x="70" y="761" type="line"/>
      <point x="70" y="538" type="line"/>
      <point x="717" y="538" type="line"/>
      <point x="717" y="761" type="line"/>
    </contour>
  </outline>
</glyph>
<glyph name="greaterequal" format="1">
  <advance width="456"/>
  <unicode hex="2265"/>
  <outline>
    <contour>
      <point x="586" y="1182" type="line"/>
      <point x="-129" y="1778" type="line"/>
      <point x="-129" y="1313" type="line"/>
      <point x="204" y="997" type="line"/>
      <point x="-129" y="681" type="line"/>
      <point x="-129" y="216" type="line"/>
      <point x="586" y="812" type="line"/>
    </contour>
    <contour>
      <point x="-95" y="224" type="line"/>
      <point x="-95" y="0" type="line"/>
      <point x="552" y="0" type="line"/>
      <point x="552" y="224" type="line"/>
    </contour>
  </outline>
</glyph>
<glyph name="lozenge" format="1">
  <advance width="1432"/>
  <unicode hex="25CA"/>
  <outline>
    <contour>
      <point x="137" y="762" type="line"/>
      <point x="457" y="1525" type="line"/>
      <point x="930" y="1525" type="line"/>
      <point x="1221" y="762" type="line"/>
      <point x="930" y="-1" type="line"/>
      <point x="457" y="-1" type="line"/>
    </contour>
    <contour>
      <point x="496" y="762" type="line"/>
      <point x="705" y="267" type="line"/>
      <point x="876" y="762" type="line"/>
      <point x="705" y="1257" type="line"/>
    </contour>
  </outline>
</glyph>
<glyph name="uniF6D6" format="1">
  <advance width="1478"/>
  <unicode hex="F6D6"/>
  <outline>
    <contour>
      <point x="962" y="1814" type="line"/>
      <point x="1115" y="1188" type="line"/>
      <point x="950" y="1128" type="line"/>
      <point x="662" y="1695" type="line"/>
    </contour>
    <contour>
      <point x="362" y="1795" type="line"/>
      <point x="669" y="1228" type="line"/>
      <point x="525" y="1129" type="line"/>
      <point x="102" y="1604" type="line"/>
    </contour>
  </outline>
</glyph>
<glyph name="uniFB01" format="1">
  <advance width="1691"/>
  <unicode hex="FB01"/>
  <outline>
    <contour>
      <point x="1538" y="1072" type="line"/>
      <point x="657" y="1072" type="line"/>
      <point x="651" y="1180"/>
      <point x="704" y="1265"/>
      <point x="767" y="1265" type="qcurve"/>
      <point x="805" y="1265"/>
      <point x="863" y="1252" type="qcurve"/>
      <point x="863" y="1563" type="line"/>
      <point x="849" y="1568"/>
      <point x="796" y="1584"/>
      <point x="635" y="1610"/>
      <point x="555" y="1610" type="qcurve"/>
      <point x="175" y="1610"/>
      <point x="175" y="1207" type="qcurve"/>
      <point x="177" y="1075"/>
      <point x="177" y="1072" type="qcurve"/>
      <point x="94" y="1072" type="line"/>
      <point x="94" y="761" type="line"/>
      <point x="178" y="761" type="line"/>
      <point x="178" y="299" type="line"/>
      <point x="94" y="299" type="line"/>
      <point x="94" y="0" type="line"/>
      <point x="774" y="0" type="line"/>
      <point x="774" y="299" type="line"/>
      <point x="664" y="299" type="line"/>
      <point x="664" y="761" type="line"/>
      <point x="1057" y="761" type="line"/>
      <point x="1057" y="299" type="line"/>
      <point x="975" y="299" type="line"/>
      <point x="975" y="0" type="line"/>
      <point x="1622" y="0" type="line"/>
      <point x="1622" y="299" type="line"/>
      <point x="1538" y="299" type="line"/>
    </contour>
    <contour>
      <point x="1257" y="1135" type="qcurve"/>
      <point x="1138" y="1135"/>
      <point x="980" y="1270"/>
      <point x="980" y="1385" type="qcurve"/>
      <point x="980" y="1498"/>
      <point x="1135" y="1630"/>
      <point x="1257" y="1630" type="qcurve"/>
      <point x="1384" y="1630"/>
      <point x="1544" y="1498"/>
      <point x="1544" y="1385" type="qcurve"/>
      <point x="1544" y="1270"/>
      <point x="1379" y="1135"/>
    </contour>
  </outline>
</glyph>
<glyph name="uniFB02" format="1">
  <advance width="1703"/>
  <unicode hex="FB02"/>
  <outline>
    <contour>
      <point x="973" y="1630" type="line"/>
      <point x="952" y="1630"/>
      <point x="850" y="1633"/>
      <point x="771" y="1635"/>
      <point x="650" y="1630"/>
      <point x="555" y="1618"/>
      <point x="440" y="1591"/>
      <point x="353" y="1550"/>
      <point x="266" y="1484"/>
      <point x="210" y="1399"/>
      <point x="175" y="1279"/>
      <point x="175" y="1207" type="qcurve"/>
      <point x="177" y="1075"/>
      <point x="177" y="1072" type="qcurve"/>
      <point x="94" y="1072" type="line"/>
      <point x="94" y="761" type="line"/>
      <point x="178" y="761" type="line"/>
      <point x="178" y="299" type="line"/>
      <point x="94" y="299" type="line"/>
      <point x="94" y="0" type="line"/>
      <point x="774" y="0" type="line"/>
      <point x="774" y="299" type="line"/>
      <point x="664" y="299" type="line"/>
      <point x="664" y="761" type="line"/>
      <point x="836" y="761" type="line"/>
      <point x="836" y="1072" type="line"/>
      <point x="659" y="1072" type="line"/>
      <point x="659" y="1145"/>
      <point x="659" y="1208"/>
      <point x="695" y="1278"/>
      <point x="722" y="1297"/>
      <point x="841" y="1317"/>
      <point x="937" y="1317"/>
      <point x="1057" y="1317" type="qcurve"/>
      <point x="1057" y="306" type="line"/>
      <point x="983" y="306" type="line"/>
      <point x="983" y="0" type="line"/>
      <point x="1630" y="0" type="line"/>
      <point x="1630" y="306" type="line"/>
      <point x="1552" y="306" type="line"/>
      <point x="1552" y="1630" type="line"/>
    </contour>
  </outline>
</glyph>
